<svg width="189" height="39" viewBox="0 0 189 39" fill="none" xmlns="http://www.w3.org/2000/svg">
<path d="M101.698 17.4037C101.658 16.9639 101.48 16.6221 101.164 16.3782C100.853 16.1303 100.407 16.0064 99.827 16.0064C99.4432 16.0064 99.1234 16.0564 98.8675 16.1563C98.6116 16.2563 98.4197 16.3942 98.2918 16.5701C98.1639 16.742 98.0979 16.9399 98.0939 17.1638C98.0859 17.3477 98.1219 17.5096 98.2018 17.6496C98.2858 17.7895 98.4057 17.9134 98.5617 18.0214C98.7216 18.1253 98.9135 18.2173 99.1374 18.2972C99.3613 18.3772 99.6131 18.4472 99.893 18.5071L100.948 18.747C101.556 18.8789 102.092 19.0548 102.556 19.2747C103.023 19.4946 103.415 19.7565 103.731 20.0603C104.051 20.3642 104.293 20.714 104.457 21.1098C104.621 21.5056 104.705 21.9494 104.709 22.4411C104.705 23.2167 104.509 23.8824 104.121 24.4381C103.733 24.9938 103.175 25.4196 102.448 25.7155C101.724 26.0113 100.851 26.1592 99.827 26.1592C98.7995 26.1592 97.904 26.0053 97.1404 25.6975C96.3768 25.3896 95.7831 24.9219 95.3593 24.2942C94.9355 23.6665 94.7176 22.8729 94.7056 21.9134H97.5482C97.5722 22.3092 97.6781 22.639 97.866 22.9029C98.0539 23.1668 98.3118 23.3667 98.6396 23.5026C98.9715 23.6385 99.3553 23.7065 99.791 23.7065C100.191 23.7065 100.531 23.6525 100.811 23.5446C101.094 23.4366 101.312 23.2867 101.464 23.0948C101.616 22.9029 101.694 22.683 101.698 22.4351C101.694 22.2032 101.622 22.0053 101.482 21.8414C101.342 21.6735 101.126 21.5296 100.835 21.4096C100.547 21.2857 100.179 21.1718 99.7311 21.0678L98.4477 20.768C97.3843 20.5241 96.5467 20.1303 95.935 19.5866C95.3233 19.0389 95.0195 18.2992 95.0235 17.3677C95.0195 16.6081 95.2234 15.9424 95.6352 15.3707C96.0469 14.799 96.6167 14.3532 97.3443 14.0334C98.0719 13.7136 98.9015 13.5536 99.833 13.5536C100.785 13.5536 101.61 13.7156 102.31 14.0394C103.013 14.3592 103.559 14.809 103.947 15.3887C104.335 15.9684 104.533 16.6401 104.541 17.4037H101.698Z" fill="#6095E3"/>
<path d="M108.852 23.5865L108.864 20.0903H109.272L111.863 16.792H115.185L111.335 21.5176H110.562L108.852 23.5865ZM106.208 26.0033V13.7216H109.14V26.0033H106.208ZM111.929 26.0033L109.518 22.1773L111.449 20.0963L115.317 26.0033H111.929Z" fill="#6095E3"/>
<path d="M118.226 29.4576C117.874 29.4576 117.542 29.4296 117.23 29.3736C116.918 29.3216 116.65 29.2517 116.427 29.1637L117.074 27.0348C117.362 27.1307 117.622 27.1867 117.854 27.2027C118.09 27.2187 118.292 27.1807 118.46 27.0888C118.631 27.0008 118.763 26.8429 118.855 26.615L118.969 26.3391L115.695 16.792H118.765L120.463 23.3647H120.558L122.28 16.792H125.368L121.896 26.8849C121.728 27.3886 121.49 27.8324 121.182 28.2162C120.878 28.604 120.485 28.9078 120.001 29.1277C119.521 29.3476 118.929 29.4576 118.226 29.4576Z" fill="#6095E3"/>
<path d="M126.492 26.0033V13.7216H129.425V18.3692H129.485C129.605 18.0893 129.775 17.8195 129.995 17.5596C130.219 17.2997 130.502 17.0878 130.846 16.9239C131.194 16.756 131.61 16.6721 132.094 16.6721C132.733 16.6721 133.331 16.84 133.887 17.1758C134.446 17.5116 134.898 18.0294 135.242 18.729C135.586 19.4287 135.758 20.3202 135.758 21.4037C135.758 22.4471 135.592 23.3207 135.26 24.0243C134.932 24.728 134.488 25.2557 133.929 25.6075C133.373 25.9593 132.755 26.1352 132.076 26.1352C131.612 26.1352 131.21 26.0593 130.87 25.9074C130.53 25.7554 130.245 25.5555 130.013 25.3077C129.785 25.0598 129.609 24.7939 129.485 24.5101H129.395V26.0033H126.492ZM129.365 21.3977C129.365 21.8934 129.431 22.3252 129.563 22.693C129.699 23.0608 129.893 23.3467 130.145 23.5506C130.4 23.7505 130.706 23.8504 131.062 23.8504C131.422 23.8504 131.728 23.7505 131.98 23.5506C132.232 23.3467 132.421 23.0608 132.549 22.693C132.681 22.3252 132.747 21.8934 132.747 21.3977C132.747 20.9019 132.681 20.4721 132.549 20.1083C132.421 19.7445 132.232 19.4626 131.98 19.2627C131.732 19.0628 131.426 18.9629 131.062 18.9629C130.702 18.9629 130.396 19.0608 130.145 19.2567C129.893 19.4526 129.699 19.7325 129.563 20.0963C129.431 20.4601 129.365 20.8939 129.365 21.3977Z" fill="#6095E3"/>
<path d="M137.294 26.0033V16.792H140.227V26.0033H137.294ZM138.764 15.7185C138.352 15.7185 137.998 15.5826 137.702 15.3108C137.406 15.0349 137.258 14.7031 137.258 14.3153C137.258 13.9315 137.406 13.6036 137.702 13.3318C137.998 13.0559 138.352 12.918 138.764 12.918C139.18 12.918 139.533 13.0559 139.825 13.3318C140.121 13.6036 140.269 13.9315 140.269 14.3153C140.269 14.7031 140.121 15.0349 139.825 15.3108C139.533 15.5826 139.18 15.7185 138.764 15.7185Z" fill="#6095E3"/>
<path d="M147.293 16.792V18.9509H141.482V16.792H147.293ZM142.699 14.5851H145.632V23.1068C145.632 23.2867 145.66 23.4326 145.716 23.5446C145.776 23.6525 145.862 23.7305 145.974 23.7784C146.085 23.8224 146.219 23.8444 146.375 23.8444C146.487 23.8444 146.605 23.8344 146.729 23.8144C146.857 23.7904 146.953 23.7704 147.017 23.7545L147.461 25.8714C147.321 25.9114 147.123 25.9613 146.867 26.0213C146.615 26.0813 146.313 26.1193 145.962 26.1352C145.274 26.1672 144.684 26.0873 144.192 25.8954C143.705 25.6995 143.331 25.3956 143.071 24.9838C142.815 24.572 142.691 24.0543 142.699 23.4306V14.5851Z" fill="#6095E3"/>
<path d="M150.438 26.1772C150.006 26.1772 149.637 26.0253 149.329 25.7215C149.025 25.4176 148.875 25.0498 148.879 24.618C148.875 24.1942 149.025 23.8324 149.329 23.5326C149.637 23.2287 150.006 23.0768 150.438 23.0768C150.846 23.0768 151.206 23.2287 151.518 23.5326C151.834 23.8324 151.993 24.1942 151.997 24.618C151.993 24.9059 151.918 25.1677 151.77 25.4036C151.626 25.6395 151.436 25.8274 151.2 25.9673C150.968 26.1073 150.714 26.1772 150.438 26.1772Z" fill="#6095E3"/>
<path d="M151.251 20.0185C150.843 20.0185 150.491 19.9262 150.197 19.7414C149.904 19.5548 149.679 19.2977 149.522 18.9703C149.365 18.6428 149.286 18.2678 149.286 17.8452C149.286 17.4171 149.366 17.0393 149.527 16.7119C149.688 16.3826 149.915 16.1255 150.208 15.9408C150.501 15.756 150.845 15.6636 151.242 15.6636C151.563 15.6636 151.848 15.723 152.099 15.842C152.349 15.959 152.551 16.1237 152.705 16.3359C152.861 16.5481 152.953 16.796 152.982 17.0796H152.184C152.14 16.882 152.039 16.7119 151.882 16.5692C151.726 16.4265 151.518 16.3551 151.256 16.3551C151.028 16.3551 150.827 16.4155 150.655 16.5362C150.485 16.6551 150.352 16.8253 150.257 17.0466C150.162 17.2662 150.115 17.5259 150.115 17.826C150.115 18.1333 150.161 18.3986 150.255 18.6218C150.348 18.845 150.48 19.0178 150.65 19.1404C150.822 19.263 151.024 19.3243 151.256 19.3243C151.412 19.3243 151.553 19.2959 151.679 19.2392C151.807 19.1807 151.914 19.0974 152 18.9895C152.088 18.8816 152.149 18.7517 152.184 18.5998H152.982C152.953 18.8724 152.864 19.1157 152.716 19.3298C152.568 19.5438 152.369 19.7121 152.121 19.8347C151.874 19.9573 151.584 20.0185 151.251 20.0185Z" fill="#585AD1"/>
<path d="M154.68 14.3135V19.9335H153.86V14.3135H154.68Z" fill="#585AD1"/>
<path d="M157.559 20.0185C157.164 20.0185 156.819 19.928 156.525 19.7469C156.23 19.5658 156.002 19.3124 155.839 18.9867C155.676 18.6611 155.595 18.2806 155.595 17.8452C155.595 17.408 155.676 17.0256 155.839 16.6981C156.002 16.3707 156.23 16.1164 156.525 15.9353C156.819 15.7541 157.164 15.6636 157.559 15.6636C157.955 15.6636 158.299 15.7541 158.594 15.9353C158.889 16.1164 159.117 16.3707 159.28 16.6981C159.443 17.0256 159.524 17.408 159.524 17.8452C159.524 18.2806 159.443 18.6611 159.28 18.9867C159.117 19.3124 158.889 19.5658 158.594 19.7469C158.299 19.928 157.955 20.0185 157.559 20.0185ZM157.562 19.3298C157.818 19.3298 158.031 19.2621 158.199 19.1267C158.367 18.9913 158.492 18.8111 158.572 18.5861C158.654 18.3611 158.696 18.1132 158.696 17.8424C158.696 17.5735 158.654 17.3265 158.572 17.1015C158.492 16.8747 158.367 16.6926 158.199 16.5554C158.031 16.4182 157.818 16.3496 157.562 16.3496C157.304 16.3496 157.09 16.4182 156.92 16.5554C156.752 16.6926 156.626 16.8747 156.544 17.1015C156.464 17.3265 156.423 17.5735 156.423 17.8424C156.423 18.1132 156.464 18.3611 156.544 18.5861C156.626 18.8111 156.752 18.9913 156.92 19.1267C157.09 19.2621 157.304 19.3298 157.562 19.3298Z" fill="#585AD1"/>
<path d="M163.11 18.1855V15.7185H163.933V19.9335H163.127V19.2035H163.083C162.986 19.4286 162.83 19.6161 162.616 19.7661C162.404 19.9143 162.14 19.9884 161.823 19.9884C161.552 19.9884 161.313 19.9289 161.104 19.81C160.897 19.6892 160.735 19.5109 160.616 19.2749C160.499 19.0389 160.44 18.7471 160.44 18.3995V15.7185H161.261V18.3007C161.261 18.5879 161.34 18.8166 161.499 18.9867C161.659 19.1569 161.865 19.242 162.12 19.242C162.273 19.242 162.426 19.2035 162.578 19.1267C162.731 19.0499 162.859 18.9337 162.959 18.7782C163.062 18.6227 163.112 18.4251 163.11 18.1855Z" fill="#585AD1"/>
<path d="M166.614 20.0158C166.273 20.0158 165.97 19.9289 165.703 19.7551C165.437 19.5795 165.229 19.3298 165.077 19.006C164.927 18.6803 164.852 18.2897 164.852 17.8342C164.852 17.3787 164.928 16.989 165.08 16.6652C165.233 16.3414 165.444 16.0935 165.711 15.9215C165.978 15.7496 166.281 15.6636 166.619 15.6636C166.881 15.6636 167.091 15.7075 167.25 15.7953C167.411 15.8813 167.536 15.9819 167.624 16.0972C167.713 16.2124 167.783 16.314 167.832 16.4018H167.882V14.3135H168.702V19.9335H167.901V19.2776H167.832C167.783 19.3673 167.711 19.4697 167.618 19.585C167.527 19.7002 167.4 19.8008 167.239 19.8868C167.078 19.9728 166.87 20.0158 166.614 20.0158ZM166.795 19.316C167.031 19.316 167.23 19.2538 167.393 19.1294C167.558 19.0032 167.682 18.8285 167.766 18.6053C167.852 18.3821 167.895 18.1223 167.895 17.826C167.895 17.5333 167.853 17.2771 167.769 17.0576C167.685 16.8381 167.561 16.667 167.399 16.5445C167.236 16.4219 167.035 16.3606 166.795 16.3606C166.548 16.3606 166.342 16.4246 166.177 16.5527C166.013 16.6808 165.888 16.8555 165.804 17.0768C165.722 17.2982 165.681 17.5479 165.681 17.826C165.681 18.1077 165.723 18.3611 165.807 18.5861C165.891 18.8111 166.016 18.9895 166.18 19.1212C166.347 19.2511 166.552 19.316 166.795 19.316Z" fill="#585AD1"/>
<path d="M79.8655 12.8983C79.2343 12.8457 78.603 12.8457 77.9718 12.8983C76.8041 10.6681 75.0893 8.90065 72.859 7.72239C71.1232 6.79661 69.1559 6.22852 67.0624 6.22852C62.7806 6.22852 58.8987 7.95383 56.0687 10.7522C58.1833 9.2373 60.8344 8.38516 63.6117 8.38516C68.7772 8.38516 73.385 11.3203 75.0893 15.6967L75.6889 17.2432C77.8877 16.7067 79.9286 16.3069 82.0326 17.3905C84.2103 18.5161 85.7147 20.799 85.7147 23.4291C85.7147 25.4069 84.8415 27.2058 83.4003 28.5314C81.0437 30.7091 77.6352 30.162 74.7211 30.2146C72.1121 30.2672 65.6316 30.2252 65.0004 30.2252L75.205 38.21L74.4476 34.023C75.1314 34.023 78.8345 34.023 78.9397 34.023C84.7574 34.023 89.4915 29.2468 89.4915 23.4186C89.502 17.906 85.2518 13.3612 79.8655 12.8983Z" fill="url(#paint0_linear_69_7746)"/>
<path d="M50.4194 14.7396C51.8291 14.7396 53.3861 15.2024 53.3861 15.2024C53.3861 15.2024 56.3528 7.08083 67.7462 7.08083C69.8292 7.08083 71.8281 7.49112 73.6481 8.23806C70.9865 6.46014 67.7357 5.4502 64.3061 5.4502C59.4458 5.4502 54.8064 7.52268 51.7976 11.0259C51.3031 10.9628 50.8507 10.9312 50.4299 10.9312C43.8548 10.9312 38.5 16.3071 38.5 22.9138C38.5 29.4153 43.3603 34.7175 50.1669 34.8647H67.2623L57.0051 26.6064L57.7625 31.1406C57.1418 31.1406 50.7561 31.1932 50.5667 31.1932C46.0746 31.1932 42.2768 27.4269 42.2768 22.9664C42.2662 18.4322 45.9273 14.7501 50.4194 14.7396Z" fill="#6095E3"/>
<defs>
<linearGradient id="paint0_linear_69_7746" x1="81.1781" y1="3.44588" x2="69.0635" y2="25.1326" gradientUnits="userSpaceOnUse">
<stop stop-color="#6095E3"/>
<stop offset="1" stop-color="#5859D1"/>
</linearGradient>
</defs>
</svg>
