<svg width="106" height="25" viewBox="0 0 106 25" fill="none" xmlns="http://www.w3.org/2000/svg">
<path d="M51.1087 11.1522C51.0837 10.8773 50.9725 10.6637 50.7751 10.5113C50.5802 10.3564 50.3016 10.2789 49.9393 10.2789C49.6994 10.2789 49.4995 10.3101 49.3396 10.3726C49.1797 10.4351 49.0598 10.5213 48.9798 10.6312C48.8998 10.7387 48.8586 10.8624 48.8561 11.0023C48.8511 11.1172 48.8736 11.2184 48.9236 11.3059C48.976 11.3933 49.051 11.4708 49.1485 11.5383C49.2484 11.6032 49.3683 11.6607 49.5083 11.7107C49.6482 11.7606 49.8056 11.8044 49.9805 11.8419L50.6402 11.9918C51.02 12.0742 51.3548 12.1842 51.6447 12.3216C51.937 12.459 52.1819 12.6227 52.3793 12.8126C52.5792 13.0025 52.7304 13.2212 52.8328 13.4685C52.9353 13.7159 52.9878 13.9933 52.9903 14.3006C52.9878 14.7854 52.8653 15.2014 52.6229 15.5487C52.3806 15.896 52.032 16.1622 51.5772 16.3471C51.125 16.532 50.579 16.6244 49.9393 16.6244C49.2971 16.6244 48.7374 16.5282 48.2602 16.3358C47.7829 16.1434 47.4118 15.8511 47.147 15.4588C46.8821 15.0665 46.7459 14.5705 46.7384 13.9708H48.515C48.53 14.2181 48.5962 14.4243 48.7137 14.5892C48.8311 14.7541 48.9923 14.8791 49.1972 14.964C49.4046 15.049 49.6445 15.0915 49.9168 15.0915C50.1667 15.0915 50.3791 15.0577 50.554 14.9903C50.7314 14.9228 50.8676 14.8291 50.9625 14.7091C51.0575 14.5892 51.1062 14.4518 51.1087 14.2969C51.1062 14.1519 51.0612 14.0282 50.9738 13.9258C50.8863 13.8208 50.7514 13.7309 50.569 13.6559C50.3891 13.5785 50.1592 13.5073 49.8793 13.4423L49.0772 13.2549C48.4126 13.1025 47.8891 12.8563 47.5068 12.5165C47.1245 12.1742 46.9346 11.7119 46.9371 11.1297C46.9346 10.655 47.062 10.2389 47.3194 9.8816C47.5768 9.52428 47.9328 9.24568 48.3876 9.04578C48.8424 8.84588 49.3608 8.74593 49.9431 8.74593C50.5378 8.74593 51.0537 8.84713 51.491 9.04953C51.9308 9.24942 52.2719 9.53053 52.5142 9.89285C52.7566 10.2552 52.8803 10.6749 52.8853 11.1522H51.1087Z" fill="white"/>
<path d="M55.5802 15.0165L55.5877 12.8314H55.8426L57.4617 10.7699H59.5382L57.1319 13.7234H56.6484L55.5802 15.0165ZM53.9273 16.527V8.85088H55.7601V16.527H53.9273ZM57.503 16.527L55.9962 14.1357L57.2031 12.8351L59.6206 16.527H57.503Z" fill="white"/>
<path d="M61.4385 18.6859C61.2186 18.6859 61.0112 18.6684 60.8163 18.6334C60.6214 18.6009 60.454 18.5572 60.314 18.5022L60.7188 17.1716C60.8987 17.2316 61.0611 17.2666 61.2061 17.2766C61.3535 17.2866 61.4797 17.2628 61.5846 17.2054C61.6921 17.1504 61.7745 17.0517 61.832 16.9093L61.9032 16.7369L59.8568 10.7699H61.7758L62.8365 14.8778H62.8965L63.9722 10.7699H65.9024L63.7323 17.0779C63.6273 17.3928 63.4787 17.6701 63.2863 17.91C63.0964 18.1524 62.8502 18.3423 62.5479 18.4797C62.248 18.6172 61.8782 18.6859 61.4385 18.6859Z" fill="white"/>
<path d="M66.6052 16.527V8.85088H68.438V11.7556H68.4755C68.5505 11.5807 68.6567 11.4121 68.7941 11.2497C68.934 11.0872 69.1114 10.9548 69.3263 10.8524C69.5437 10.7474 69.8036 10.6949 70.1059 10.6949C70.5057 10.6949 70.8793 10.7999 71.2266 11.0098C71.5764 11.2197 71.8588 11.5433 72.0737 11.9805C72.2886 12.4178 72.396 12.975 72.396 13.6522C72.396 14.3044 72.2923 14.8503 72.0849 15.2901C71.88 15.7299 71.6027 16.0597 71.2528 16.2796C70.9055 16.4995 70.5195 16.6094 70.0947 16.6094C69.8048 16.6094 69.5537 16.562 69.3413 16.467C69.1289 16.372 68.9503 16.2471 68.8053 16.0922C68.6629 15.9373 68.553 15.7711 68.4755 15.5937H68.4193V16.527H66.6052ZM68.4005 13.6484C68.4005 13.9583 68.4418 14.2281 68.5242 14.458C68.6092 14.6879 68.7304 14.8666 68.8878 14.994C69.0477 15.1189 69.2389 15.1814 69.4612 15.1814C69.6861 15.1814 69.8773 15.1189 70.0347 14.994C70.1921 14.8666 70.3108 14.6879 70.3908 14.458C70.4732 14.2281 70.5145 13.9583 70.5145 13.6484C70.5145 13.3386 70.4732 13.07 70.3908 12.8426C70.3108 12.6152 70.1921 12.4391 70.0347 12.3141C69.8798 12.1892 69.6886 12.1267 69.4612 12.1267C69.2364 12.1267 69.0452 12.1879 68.8878 12.3104C68.7304 12.4328 68.6092 12.6077 68.5242 12.8351C68.4418 13.0625 68.4005 13.3336 68.4005 13.6484Z" fill="white"/>
<path d="M73.3565 16.527V10.7699H75.1893V16.527H73.3565ZM74.2747 10.099C74.0174 10.099 73.7962 10.014 73.6113 9.84412C73.4264 9.67171 73.334 9.46432 73.334 9.22194C73.334 8.98206 73.4264 8.77716 73.6113 8.60725C73.7962 8.43484 74.0174 8.34863 74.2747 8.34863C74.5346 8.34863 74.7557 8.43484 74.9381 8.60725C75.1231 8.77716 75.2155 8.98206 75.2155 9.22194C75.2155 9.46432 75.1231 9.67171 74.9381 9.84412C74.7557 10.014 74.5346 10.099 74.2747 10.099Z" fill="white"/>
<path d="M79.6055 10.7699V12.1192H75.9736V10.7699H79.6055ZM76.7344 9.3906H78.5672V14.7166C78.5672 14.8291 78.5847 14.9203 78.6197 14.9903C78.6572 15.0577 78.7109 15.1064 78.7809 15.1364C78.8508 15.1639 78.9346 15.1777 79.032 15.1777C79.102 15.1777 79.1757 15.1714 79.2531 15.1589C79.3331 15.1439 79.3931 15.1314 79.433 15.1214L79.7104 16.4445C79.623 16.4695 79.4993 16.5007 79.3393 16.5382C79.1819 16.5757 78.9933 16.5994 78.7734 16.6094C78.3436 16.6294 77.975 16.5794 77.6677 16.4595C77.3629 16.3371 77.1292 16.1472 76.9668 15.8898C76.8069 15.6324 76.7294 15.3088 76.7344 14.919V9.3906Z" fill="white"/>
<path d="M81.5713 16.6357C81.3015 16.6357 81.0703 16.5407 80.8779 16.3508C80.688 16.1609 80.5943 15.931 80.5968 15.6612C80.5943 15.3963 80.688 15.1702 80.8779 14.9828C81.0703 14.7929 81.3015 14.6979 81.5713 14.6979C81.8262 14.6979 82.0511 14.7929 82.246 14.9828C82.4434 15.1702 82.5433 15.3963 82.5458 15.6612C82.5433 15.8411 82.4959 16.0047 82.4034 16.1522C82.3135 16.2996 82.1948 16.417 82.0473 16.5045C81.9024 16.5919 81.7437 16.6357 81.5713 16.6357Z" fill="white"/>
<path d="M82.0792 12.7864C81.8243 12.7864 81.6047 12.7286 81.4206 12.6131C81.2377 12.4965 81.0971 12.3359 80.9987 12.1312C80.9004 11.9265 80.8512 11.6921 80.8512 11.428C80.8512 11.1605 80.9015 10.9244 81.0022 10.7197C81.1028 10.5139 81.2446 10.3532 81.4275 10.2377C81.6104 10.1223 81.826 10.0645 82.0741 10.0645C82.2742 10.0645 82.4525 10.1017 82.6092 10.176C82.7658 10.2492 82.8922 10.3521 82.9882 10.4847C83.0854 10.6174 83.1432 10.7723 83.1614 10.9495H82.6624C82.6349 10.826 82.572 10.7197 82.4737 10.6305C82.3765 10.5413 82.2462 10.4967 82.0827 10.4967C81.9397 10.4967 81.8145 10.5345 81.7071 10.6099C81.6007 10.6842 81.5178 10.7906 81.4584 10.9289C81.3989 11.0661 81.3692 11.2285 81.3692 11.416C81.3692 11.6081 81.3983 11.7739 81.4567 11.9134C81.515 12.0529 81.5973 12.1609 81.7036 12.2375C81.8111 12.3141 81.9374 12.3525 82.0827 12.3525C82.1798 12.3525 82.2679 12.3347 82.3468 12.2993C82.4268 12.2627 82.4937 12.2107 82.5474 12.1432C82.6023 12.0758 82.6406 11.9946 82.6624 11.8997H83.1614C83.1432 12.07 83.0877 12.2221 82.9951 12.3559C82.9025 12.4897 82.7784 12.5949 82.6229 12.6715C82.4686 12.7481 82.2873 12.7864 82.0792 12.7864Z" fill="white"/>
<path d="M84.2227 9.2207V12.7332H83.7098V9.2207H84.2227Z" fill="white"/>
<path d="M86.0222 12.7864C85.7752 12.7864 85.5597 12.7298 85.3756 12.6166C85.1915 12.5034 85.0486 12.345 84.9469 12.1415C84.8451 11.938 84.7942 11.7001 84.7942 11.428C84.7942 11.1547 84.8451 10.9158 84.9469 10.7111C85.0486 10.5064 85.1915 10.3475 85.3756 10.2343C85.5597 10.1211 85.7752 10.0645 86.0222 10.0645C86.2692 10.0645 86.4847 10.1211 86.6688 10.2343C86.8529 10.3475 86.9958 10.5064 87.0976 10.7111C87.1993 10.9158 87.2502 11.1547 87.2502 11.428C87.2502 11.7001 87.1993 11.938 87.0976 12.1415C86.9958 12.345 86.8529 12.5034 86.6688 12.6166C86.4847 12.7298 86.2692 12.7864 86.0222 12.7864ZM86.0239 12.3559C86.184 12.3559 86.3166 12.3136 86.4218 12.229C86.527 12.1444 86.6048 12.0317 86.6551 11.8911C86.7065 11.7505 86.7323 11.5955 86.7323 11.4263C86.7323 11.2582 86.7065 11.1039 86.6551 10.9632C86.6048 10.8215 86.527 10.7077 86.4218 10.6219C86.3166 10.5362 86.184 10.4933 86.0239 10.4933C85.8627 10.4933 85.7289 10.5362 85.6226 10.6219C85.5174 10.7077 85.4391 10.8215 85.3876 10.9632C85.3373 11.1039 85.3122 11.2582 85.3122 11.4263C85.3122 11.5955 85.3373 11.7505 85.3876 11.8911C85.4391 12.0317 85.5174 12.1444 85.6226 12.229C85.7289 12.3136 85.8627 12.3559 86.0239 12.3559Z" fill="white"/>
<path d="M89.4914 11.6407V10.0988H90.0059V12.7332H89.5017V12.277H89.4743C89.4137 12.4176 89.3165 12.5348 89.1827 12.6286C89.0501 12.7212 88.8848 12.7675 88.687 12.7675C88.5178 12.7675 88.368 12.7303 88.2377 12.656C88.1085 12.5806 88.0067 12.4691 87.9324 12.3216C87.8592 12.1741 87.8226 11.9917 87.8226 11.7745V10.0988H88.3354V11.7127C88.3354 11.8922 88.3852 12.0352 88.4847 12.1415C88.5841 12.2478 88.7133 12.301 88.8723 12.301C88.9683 12.301 89.0638 12.277 89.1587 12.229C89.2547 12.1809 89.3342 12.1083 89.3971 12.0111C89.4611 11.914 89.4926 11.7905 89.4914 11.6407Z" fill="white"/>
<path d="M91.6811 12.7847C91.4685 12.7847 91.2787 12.7303 91.1117 12.6217C90.9459 12.512 90.8156 12.3559 90.7207 12.1535C90.6269 11.95 90.5801 11.7059 90.5801 11.4212C90.5801 11.1365 90.6275 10.8929 90.7224 10.6905C90.8185 10.4882 90.9499 10.3332 91.1169 10.2257C91.2838 10.1183 91.473 10.0645 91.6846 10.0645C91.8481 10.0645 91.9796 10.092 92.079 10.1469C92.1797 10.2006 92.2574 10.2635 92.3123 10.3355C92.3683 10.4075 92.4118 10.471 92.4426 10.5259H92.4735V9.2207H92.9863V12.7332H92.4855V12.3233H92.4426C92.4118 12.3793 92.3672 12.4434 92.3089 12.5154C92.2517 12.5874 92.1728 12.6503 92.0722 12.704C91.9716 12.7578 91.8412 12.7847 91.6811 12.7847ZM91.7943 12.3473C91.9418 12.3473 92.0665 12.3084 92.1682 12.2307C92.2711 12.1518 92.3489 12.0426 92.4015 11.9031C92.4552 11.7636 92.4821 11.6012 92.4821 11.416C92.4821 11.2331 92.4558 11.073 92.4032 10.9358C92.3506 10.7986 92.2734 10.6917 92.1717 10.6151C92.0699 10.5385 91.9441 10.5002 91.7943 10.5002C91.64 10.5002 91.5114 10.5402 91.4084 10.6202C91.3055 10.7003 91.2278 10.8094 91.1752 10.9478C91.1237 11.0861 91.098 11.2422 91.098 11.416C91.098 11.5921 91.1243 11.7505 91.1769 11.8911C91.2295 12.0317 91.3073 12.1432 91.4102 12.2255C91.5142 12.3067 91.6423 12.3473 91.7943 12.3473Z" fill="white"/>
<path d="M37.4635 8.33563C37.0689 8.30276 36.6744 8.30276 36.2799 8.33563C35.5501 6.9417 34.4783 5.83708 33.0844 5.10066C31.9995 4.52205 30.77 4.16699 29.4615 4.16699C26.7854 4.16699 24.3592 5.24532 22.5905 6.9943C23.9121 6.04748 25.569 5.5149 27.3049 5.5149C30.5333 5.5149 33.4132 7.34936 34.4783 10.0846L34.8531 11.0512C36.2273 10.7158 37.5029 10.466 38.8179 11.1432C40.179 11.8468 41.1192 13.2736 41.1192 14.9173C41.1192 16.1535 40.5735 17.2778 39.6727 18.1063C38.1999 19.4673 36.0695 19.1254 34.2482 19.1583C32.6176 19.1912 28.5673 19.1649 28.1728 19.1649L34.5507 24.1554L34.0773 21.5385C34.5046 21.5385 36.8191 21.5385 36.8848 21.5385C40.5209 21.5385 43.4797 18.5534 43.4797 14.9108C43.4863 11.4654 40.8299 8.62494 37.4635 8.33563Z" fill="white"/>
<path d="M19.0597 9.48651C19.9407 9.48651 20.9138 9.77582 20.9138 9.77582C20.9138 9.77582 22.768 4.69981 29.8889 4.69981C31.1908 4.69981 32.4401 4.95624 33.5776 5.42308C31.9141 4.31188 29.8823 3.68066 27.7388 3.68066C24.7011 3.68066 21.8015 4.97597 19.921 7.16549C19.612 7.12604 19.3292 7.10631 19.0662 7.10631C14.9568 7.10631 11.61 10.4662 11.61 14.5954C11.61 18.6588 14.6477 21.9727 18.9018 22.0648H29.5865L23.1757 16.9033L23.6491 19.7372C23.2612 19.7372 19.2701 19.77 19.1517 19.77C16.3441 19.77 13.9705 17.4161 13.9705 14.6283C13.9639 11.7944 16.2521 9.49309 19.0597 9.48651Z" fill="white"/>
</svg>
