<svg width="488" height="383" viewBox="0 0 488 383" fill="none" xmlns="http://www.w3.org/2000/svg">
<path d="M284.832 303.735L278.722 307.329V301.22L284.832 297.626V303.735Z" fill="#9FDFFF"/>
<path d="M281.597 308.407L275.486 312V305.891L281.597 302.657V308.407Z" fill="#9FDFFF"/>
<path d="M303.165 249.832L297.054 253.425V247.316L303.165 243.723V249.832Z" fill="#9FDFFF"/>
<path d="M307.119 293.673L301.008 297.267V291.158L307.119 287.924V293.673Z" fill="#9FDFFF"/>
<path d="M309.995 272.471L303.884 276.065V269.956L309.995 266.362V272.471Z" fill="#9FDFFF"/>
<path d="M332.641 278.94L326.53 282.534V276.425L332.641 273.19V278.94Z" fill="#9FDFFF"/>
<path d="M354.927 242.286L349.176 245.52V239.77L354.927 236.177V242.286Z" fill="#9FDFFF"/>
<path d="M349.535 223.24L343.424 226.474V220.724L349.535 217.131V223.24Z" fill="#9FDFFF"/>
<path d="M408.486 118.308L402.376 121.542V115.793L408.486 112.199V118.308Z" fill="#9FDFFF"/>
<path d="M484.692 155.681L478.581 159.275V153.166L484.692 149.572V155.681Z" fill="#9FDFFF"/>
<path d="M404.532 126.574L398.422 129.808V123.699L404.532 120.465V126.574Z" fill="#9FDFFF"/>
<path d="M424.662 197.726L418.551 201.32V195.211L424.662 191.617V197.726Z" fill="#9FDFFF"/>
<path d="M275.846 364.466L270.095 368.06V361.951L275.846 358.357V364.466Z" fill="#9FDFFF"/>
<path d="M289.865 312.001L284.114 315.235V309.485L289.865 305.892V312.001Z" fill="#9FDFFF"/>
<path d="M298.492 267.799L292.381 271.393V265.284L298.492 261.69V267.799Z" fill="#9FDFFF"/>
<path d="M324.014 292.236L317.903 295.829V289.72L324.014 286.127V292.236Z" fill="#9FDFFF"/>
<path d="M297.054 165.384L290.943 168.978V162.869L297.054 159.275V165.384Z" fill="#9FDFFF"/>
<path d="M324.014 165.743L317.903 169.336V163.227L324.014 159.634V165.743Z" fill="#9FDFFF"/>
<path d="M349.535 277.503L343.424 281.096V274.987L349.535 271.394V277.503Z" fill="#9FDFFF"/>
<path d="M369.665 312.719L363.554 316.313V310.204L369.665 306.61V312.719Z" fill="#9FDFFF"/>
<path d="M307.119 310.204L301.008 313.797V307.688L307.119 304.095V310.204Z" fill="#9FDFFF"/>
<path d="M289.865 328.172L284.114 331.765V325.656L289.865 322.062V328.172Z" fill="#9FDFFF"/>
<path d="M324.014 308.407L317.903 312V305.891L324.014 302.657V308.407Z" fill="#9FDFFF"/>
<path d="M278.362 202.756L272.251 206.35V200.241L278.362 197.007V202.756Z" fill="#9FDFFF"/>
<path d="M340.908 298.705L335.157 302.298V296.189L340.908 292.596V298.705Z" fill="#9FDFFF"/>
<path d="M349.535 293.673L343.424 297.267V291.158L349.535 287.924V293.673Z" fill="#9FDFFF"/>
<path d="M363.554 165.743L357.443 169.336V163.227L363.554 159.634V165.743Z" fill="#9FDFFF"/>
<path d="M354.927 102.497L349.176 106.09V99.9813L354.927 96.7471V102.497Z" fill="#9FDFFF"/>
<path d="M427.538 66.5612L421.427 70.1547V64.0457L427.538 60.4521V66.5612Z" fill="#9FDFFF"/>
<path d="M324.014 316.672L317.903 320.265V314.156L324.014 310.922V316.672Z" fill="#9FDFFF"/>
<path d="M332.641 312.001L326.53 315.235V309.485L332.641 305.892V312.001Z" fill="#9FDFFF"/>
<path d="M340.908 165.743L335.157 169.336V163.227L340.908 159.634V165.743Z" fill="#9FDFFF"/>
<path d="M369.665 145.979L363.554 149.573V143.464L369.665 140.229V145.979Z" fill="#9FDFFF"/>
<path d="M332.641 319.906L326.53 323.499V317.39L332.641 314.156V319.906Z" fill="#9FDFFF"/>
<path d="M340.908 315.235L335.157 318.469V312.72L340.908 309.126V315.235Z" fill="#9FDFFF"/>
<path d="M366.789 300.501L360.678 303.735V297.985L366.789 294.392V300.501Z" fill="#9FDFFF"/>
<path d="M267.938 356.201L261.827 359.794V353.685L267.938 350.092V356.201Z" fill="#9FDFFF"/>
<path d="M303.884 341.467L298.132 344.702V338.952L303.884 335.358V341.467Z" fill="#9FDFFF"/>
<path d="M315.386 338.233L309.635 341.467V335.358L315.386 332.124V338.233Z" fill="#9FDFFF"/>
<path d="M349.535 318.468L343.424 322.062V315.953L349.535 312.359V318.468Z" fill="#9FDFFF"/>
<path d="M281.597 365.904L275.486 369.497V363.388L281.597 359.795V365.904Z" fill="#9FDFFF"/>
<path d="M289.865 360.873L284.114 364.466V358.357L289.865 355.123V360.873Z" fill="#9FDFFF"/>
<path d="M298.492 356.201L292.381 359.435V353.685L298.492 350.092V356.201Z" fill="#9FDFFF"/>
<path d="M307.119 351.17L301.008 354.763V348.654L307.119 345.061V351.17Z" fill="#9FDFFF"/>
<path d="M332.641 336.436L326.53 340.03V333.921L332.641 330.327V336.436Z" fill="#9FDFFF"/>
<path d="M366.789 316.672L360.678 320.265V314.156L366.789 310.562V316.672Z" fill="#9FDFFF"/>
<path d="M281.597 374.169L275.487 377.762V371.653L281.597 368.06V374.169Z" fill="#9FDFFF"/>
<path d="M307.119 359.435L301.008 362.669V356.92L307.119 353.326V359.435Z" fill="#9FDFFF"/>
<path d="M332.641 344.702L326.53 347.936V342.186L332.641 338.593V344.702Z" fill="#9FDFFF"/>
<path d="M340.908 339.671L335.157 343.264V337.155L340.908 333.562V339.671Z" fill="#9FDFFF"/>
<path d="M274.408 258.097L268.297 261.691V255.582L274.408 252.348V258.097Z" fill="#9FDFFF"/>
<path d="M358.162 258.097L352.051 261.691V255.582L358.162 252.348V258.097Z" fill="#9FDFFF"/>
<path d="M391.592 197.726L385.481 201.32V195.211L391.592 191.617V197.726Z" fill="#9FDFFF"/>
<path d="M400.578 225.396L394.468 228.99V222.881L400.578 219.646V225.396Z" fill="#9FDFFF"/>
<path d="M60.5297 20.9235L54.4189 24.517V18.408L60.5297 14.8145V20.9235Z" fill="#9FDFFF"/>
<path d="M322.935 215.693L316.824 219.287V213.178L322.935 209.584V215.693Z" fill="#9FDFFF"/>
<path d="M368.587 180.837L362.476 184.43V178.321L368.587 175.087V180.837Z" fill="#9FDFFF"/>
<path d="M149.676 121.543L143.565 125.136V119.027L149.676 115.793V121.543Z" fill="#9FDFFF"/>
<path d="M430.413 136.635L424.662 140.229V134.12L430.413 130.526V136.635Z" fill="#9FDFFF"/>
<path d="M92.8811 186.226L86.7703 189.46V183.351L92.8811 180.117V186.226Z" fill="#9FDFFF"/>
<path d="M281.597 324.937L275.486 328.531V322.422L281.597 318.828V324.937Z" fill="#9FDFFF"/>
<path d="M270.813 290.439L264.703 294.033V287.924L270.813 284.33V290.439Z" fill="#9FDFFF"/>
<path d="M347.378 258.097L341.268 261.691V255.582L347.378 252.348V258.097Z" fill="#9FDFFF"/>
<path d="M312.87 227.912L307.119 231.505V225.396L312.87 221.803V227.912Z" fill="#9FDFFF"/>
<path d="M358.162 289.002L352.051 292.236V286.486L358.162 282.893V289.002Z" fill="#9FDFFF"/>
<path d="M366.789 283.97L360.678 287.564V281.455L366.789 277.861V283.97Z" fill="#9FDFFF"/>
<path d="M394.468 272.471L388.357 276.065V269.956L394.468 266.362V272.471Z" fill="#9FDFFF"/>
<path d="M281.597 341.467L275.486 344.702V338.952L281.597 335.358V341.467Z" fill="#9FDFFF"/>
<path d="M294.178 170.415L288.068 174.008V167.899L294.178 164.306V170.415Z" fill="#9FDFFF"/>
<path d="M312.87 118.308L307.119 121.542V115.793L312.87 112.199V118.308Z" fill="#9FDFFF"/>
<path d="M307.119 326.734L301.008 329.968V324.219L307.119 320.625V326.734Z" fill="#9FDFFF"/>
<path d="M289.865 188.382L284.114 191.617V185.867L289.865 182.273V188.382Z" fill="#9FDFFF"/>
<path d="M335.516 180.837L329.405 184.071V177.962L335.516 174.728V180.837Z" fill="#9FDFFF"/>
<path d="M344.143 141.307L338.032 144.901V138.792L344.143 135.198V141.307Z" fill="#9FDFFF"/>
<path d="M332.641 328.172L326.53 331.765V325.656L332.641 322.062V328.172Z" fill="#9FDFFF"/>
<path d="M311.432 332.842L305.322 336.436V330.327L311.432 327.093V332.842Z" fill="#9FDFFF"/>
<path d="M298.492 188.382L292.381 191.617V185.867L298.492 182.273V188.382Z" fill="#9FDFFF"/>
<path d="M324.014 349.373L317.903 352.966V346.857L324.014 343.623V349.373Z" fill="#9FDFFF"/>
<path d="M358.162 329.968L352.051 333.203V327.453L358.162 323.859V329.968Z" fill="#9FDFFF"/>
<path d="M366.789 324.937L360.678 328.531V322.422L366.789 318.828V324.937Z" fill="#9FDFFF"/>
<path d="M335.516 263.129L329.405 266.363V260.613L335.516 257.02V263.129Z" fill="#9FDFFF"/>
<path d="M299.93 286.845L294.178 290.439V284.33L299.93 280.736V286.845Z" fill="#9FDFFF"/>
<path d="M272.97 242.286L266.859 245.52V239.77L272.97 236.177V242.286Z" fill="#9FDFFF"/>
<path d="M289.865 277.143L284.114 280.737V274.628L289.865 271.394V277.143Z" fill="#9FDFFF"/>
<path d="M238.822 264.566L232.711 268.16V262.051L238.822 258.457V264.566Z" fill="#9FDFFF"/>
<path d="M358.162 272.471L352.051 276.065V269.956L358.162 266.362V272.471Z" fill="#9FDFFF"/>
<path d="M289.865 232.583L284.114 236.176V230.067L289.865 226.474V232.583Z" fill="#9FDFFF"/>
<path d="M203.595 263.129L197.484 266.363V260.613L203.595 257.02V263.129Z" fill="#9FDFFF"/>
<path d="M281.597 220.724L275.486 224.318V218.209L281.597 214.615V220.724Z" fill="#9FDFFF"/>
<path d="M362.116 141.307L356.005 144.901V138.792L362.116 135.198V141.307Z" fill="#9FDFFF"/>
<path d="M238.822 151.009L232.711 154.244V148.494L238.822 144.9V151.009Z" fill="#9FDFFF"/>
<path d="M332.641 295.47L326.53 299.064V292.955L332.641 289.361V295.47Z" fill="#9FDFFF"/>
<path d="M344.143 230.427L338.032 233.662V227.912L344.143 224.318V230.427Z" fill="#9FDFFF"/>
<path d="M354.927 185.507L349.176 188.742V182.992L354.927 179.398V185.507Z" fill="#9FDFFF"/>
<path d="M135.657 205.272L129.905 208.866V202.757L135.657 199.522V205.272Z" fill="#9FDFFF"/>
<path d="M297.054 136.635L290.943 140.229V134.12L297.054 130.526V136.635Z" fill="#9FDFFF"/>
<path d="M361.038 207.788L354.927 211.022V205.272L361.038 201.679V207.788Z" fill="#9FDFFF"/>
<path d="M302.805 345.421L296.695 349.014V342.905L302.805 339.312V345.421Z" fill="#9FDFFF"/>
<path d="M298.492 323.5L292.381 326.734V320.625L298.492 317.391V323.5Z" fill="#9FDFFF"/>
<path d="M326.889 285.767L321.138 289.001V283.252L326.889 279.658V285.767Z" fill="#9FDFFF"/>
<path d="M272.97 346.139L266.859 349.733V343.624L272.97 340.39V346.139Z" fill="#9FDFFF"/>
<path d="M315.386 321.703L309.635 325.296V319.187L315.386 315.594V321.703Z" fill="#9FDFFF"/>
<path d="M358.162 297.267L352.051 300.501V294.392L358.162 291.158V297.267Z" fill="#9FDFFF"/>
<path d="M335.516 198.086L329.405 201.679V195.57L335.516 191.977V198.086Z" fill="#9FDFFF"/>
<path d="M298.492 339.671L292.381 343.264V337.155L298.492 333.562V339.671Z" fill="#9FDFFF"/>
<path d="M315.386 329.968L309.635 333.203V327.453L315.386 323.859V329.968Z" fill="#9FDFFF"/>
<path d="M319.7 245.161L313.949 248.754V242.645L319.7 239.411V245.161Z" fill="#9FDFFF"/>
<path d="M349.535 310.204L343.424 313.797V307.688L349.535 304.095V310.204Z" fill="#9FDFFF"/>
<path d="M358.162 305.172L352.051 308.766V302.657L358.162 299.423V305.172Z" fill="#9FDFFF"/>
<path d="M325.811 343.264L319.7 346.498V340.749L325.811 337.155V343.264Z" fill="#9FDFFF"/>
<path d="M289.865 352.966L284.114 356.201V350.092L289.865 346.857V352.966Z" fill="#9FDFFF"/>
<path d="M298.492 347.936L292.381 351.53V345.421L298.492 341.827V347.936Z" fill="#9FDFFF"/>
<path d="M324.014 333.202L317.903 336.795V330.686L324.014 327.093V333.202Z" fill="#9FDFFF"/>
<path d="M344.143 264.566L338.032 268.16V262.051L344.143 258.457V264.566Z" fill="#9FDFFF"/>
<path d="M362.116 282.173L356.005 285.767V279.658L362.116 276.064V282.173Z" fill="#9FDFFF"/>
<path d="M376.135 242.286L370.384 245.52V239.77L376.135 236.177V242.286Z" fill="#9FDFFF"/>
<path d="M365.711 218.209L359.6 221.802V215.693L365.711 212.459V218.209Z" fill="#9FDFFF"/>
<path d="M387.638 116.871L381.527 120.464V114.355L387.638 110.762V116.871Z" fill="#9FDFFF"/>
<path d="M382.246 97.8258L376.135 101.419V95.3103L382.246 91.7168V97.8258Z" fill="#9FDFFF"/>
<path d="M110.495 306.969L104.743 310.563V304.454L110.495 301.22V306.969Z" fill="#9FDFFF"/>
<path d="M373.619 55.7809L367.508 59.0151V53.2654L373.619 49.6719V55.7809Z" fill="#9FDFFF"/>
<path d="M401.297 55.7809L395.186 59.0151V53.2654L401.297 49.6719V55.7809Z" fill="#9FDFFF"/>
<path d="M277.643 107.528L271.532 110.762V105.012L277.643 101.419V107.528Z" fill="#9FDFFF"/>
<path d="M270.095 141.307L263.984 144.901V138.792L270.095 135.198V141.307Z" fill="#9FDFFF"/>
<path d="M376.495 105.012L370.743 108.606V102.497L376.495 98.9033V105.012Z" fill="#9FDFFF"/>
<path d="M338.751 136.635L332.641 140.229V134.12L338.751 130.526V136.635Z" fill="#9FDFFF"/>
<path d="M450.543 16.2516L444.432 19.4858V13.7361L450.543 10.1426V16.2516Z" fill="#9FDFFF"/>
<path d="M484.692 6.54949L478.581 10.143V4.034L484.692 0.799805V6.54949Z" fill="#9FDFFF"/>
<path d="M330.124 109.684L324.013 113.278V107.169L330.124 103.935V109.684Z" fill="#9FDFFF"/>
<path d="M368.227 73.0299L362.116 76.2641V70.5144L368.227 66.9209V73.0299Z" fill="#9FDFFF"/>
<path d="M393.03 163.588L387.278 166.822V161.072L393.03 157.479V163.588Z" fill="#9FDFFF"/>
<path d="M447.308 88.4821L441.557 91.7162V85.9666L447.308 82.373V88.4821Z" fill="#9FDFFF"/>
<path d="M6.6108 170.055L0.5 173.649V167.54L6.6108 163.946V170.055Z" fill="#9FDFFF"/>
<path d="M329.405 77.7018L323.654 81.2953V75.1863L329.405 71.5928V77.7018Z" fill="#9FDFFF"/>
<path d="M210.424 211.022L204.313 214.616V208.507L210.424 204.913V211.022Z" fill="#9FDFFF"/>
<path d="M275.846 175.805L270.095 179.399V173.29L275.846 170.056V175.805Z" fill="#9FDFFF"/>
<path d="M317.184 193.054L311.073 196.648V190.539L317.184 186.945V193.054Z" fill="#9FDFFF"/>
<path d="M200.359 167.899L194.608 171.493V165.384L200.359 161.79V167.899Z" fill="#9FDFFF"/>
<path d="M227.319 168.258L221.568 171.852V165.743L227.319 162.149V168.258Z" fill="#9FDFFF"/>
<path d="M242.057 240.489L235.946 244.082V237.973L242.057 234.38V240.489Z" fill="#9FDFFF"/>
<path d="M267.219 168.258L261.108 171.852V165.743L267.219 162.149V168.258Z" fill="#9FDFFF"/>
<path d="M244.573 168.258L238.462 171.852V165.743L244.573 162.149V168.258Z" fill="#9FDFFF"/>
<path d="M227.319 308.047L221.568 311.282V305.532L227.319 301.938V308.047Z" fill="#9FDFFF"/>
<path d="M487.567 65.1246L481.457 68.7182V62.6092L487.567 59.0156V65.1246Z" fill="#9FDFFF"/>
<path d="M444.432 105.012L438.322 108.606V102.497L444.432 98.9033V105.012Z" fill="#9FDFFF"/>
<path d="M113.73 122.98L107.619 126.574V120.465L113.73 116.871V122.98Z" fill="#9FDFFF"/>
<path d="M197.484 172.93L191.373 176.524V170.415L197.484 166.821V172.93Z" fill="#9FDFFF"/>
<path d="M193.53 190.898L187.419 194.132V188.383L193.53 184.789V190.898Z" fill="#9FDFFF"/>
<path d="M239.181 183.351L233.07 186.585V180.476L239.181 177.242V183.351Z" fill="#9FDFFF"/>
<path d="M201.797 190.898L196.046 194.132V188.383L201.797 184.789V190.898Z" fill="#9FDFFF"/>
<path d="M190.295 227.912L184.543 231.505V225.396L190.295 221.803V227.912Z" fill="#9FDFFF"/>
<path d="M264.703 210.303L258.592 213.538V207.788L264.703 204.194V210.303Z" fill="#9FDFFF"/>
<path d="M239.181 200.6L233.07 204.194V198.085L239.181 194.491V200.6Z" fill="#9FDFFF"/>
<path d="M179.511 178.321L173.4 181.915V175.805L179.511 172.571V178.321Z" fill="#9FDFFF"/>
<path d="M220.489 195.57L214.378 199.163V193.054L220.489 189.461V195.57Z" fill="#9FDFFF"/>
<path d="M340.908 331.406L335.157 334.999V328.89L340.908 325.656V331.406Z" fill="#9FDFFF"/>
<path d="M358.162 321.703L352.051 325.296V319.187L358.162 315.594V321.703Z" fill="#9FDFFF"/>
<path d="M272.97 379.2L266.859 382.434V376.325L272.97 373.091V379.2Z" fill="#9FDFFF"/>
<path d="M289.865 369.137L284.114 372.731V366.622L289.865 363.028V369.137Z" fill="#9FDFFF"/>
<path d="M298.492 364.107L292.381 367.701V361.592L298.492 358.357V364.107Z" fill="#9FDFFF"/>
<path d="M315.386 354.404L309.635 357.998V351.888L315.386 348.295V354.404Z" fill="#9FDFFF"/>
<path d="M349.535 334.639L343.424 338.233V332.124L349.535 328.89V334.639Z" fill="#9FDFFF"/>
</svg>
