<svg width="18" height="16" viewBox="0 0 18 16" fill="none" xmlns="http://www.w3.org/2000/svg">
<g clip-path="url(#clip0_60_3331)">
<g clip-path="url(#clip1_60_3331)">
<g clip-path="url(#clip2_60_3331)">
<path d="M5.69398 15.0498C5.78406 14.9093 5.88433 14.7756 5.99399 14.6498C7.55932 13.0791 9.12798 11.5125 10.7 9.9498C10.8186 9.84406 10.9435 9.74553 11.074 9.65479L11.018 9.54678L0.358978 9.54678V6.02078L10.944 6.02078L10.993 5.92078L5.62798 0.581787C5.86398 0.569787 6.00099 0.556793 6.13799 0.556793C7.40599 0.556793 8.67399 0.572793 9.93799 0.556793C10.0864 0.550754 10.2343 0.577876 10.371 0.636169C10.5077 0.694463 10.6296 0.78247 10.728 0.893799C12.9006 3.07913 15.0797 5.25812 17.265 7.43079C17.3791 7.53151 17.4997 7.6247 17.626 7.70978V7.8728C17.5554 7.91545 17.4885 7.96395 17.426 8.01779C15.1446 10.2911 12.865 12.5658 10.587 14.8418C10.5349 14.9038 10.489 14.9708 10.45 15.0418L5.69398 15.0498Z" fill="#00363F"/>
</g>
</g>
</g>
<defs>
<clipPath id="clip0_60_3331">
<rect width="17.26" height="14.5" fill="white" transform="translate(0.359985 0.549805)"/>
</clipPath>
<clipPath id="clip1_60_3331">
<rect width="17.26" height="14.5" fill="white" transform="translate(0.359985 0.549805)"/>
</clipPath>
<clipPath id="clip2_60_3331">
<rect width="17.27" height="14.499" fill="white" transform="translate(0.359985 0.550781)"/>
</clipPath>
</defs>
</svg>
