<svg width="540" height="257" viewBox="0 0 540 257" fill="none" xmlns="http://www.w3.org/2000/svg">
<g clip-path="url(#clip0_60_2852)">
<g clip-path="url(#clip1_60_2852)">
<g clip-path="url(#clip2_60_2852)">
<path d="M207.93 124.002C210.141 125.146 212.509 125.957 214.956 126.411C218.05 127.13 221.215 127.5 224.391 127.515C227.311 127.516 230.216 127.111 233.023 126.311C235.498 125.625 237.816 124.466 239.848 122.898C241.665 121.401 243.166 119.559 244.265 117.478C245.339 115.293 245.889 112.887 245.871 110.452C245.878 107.379 244.892 104.387 243.06 101.92C241.153 99.411 238.042 97.504 233.625 95.9984L224.993 93.188C221.681 92.0839 219.473 90.9798 218.269 89.8757C217.686 89.3197 217.225 88.6493 216.914 87.9065C216.603 87.1638 216.449 86.3648 216.462 85.5598C216.405 84.4766 216.647 83.3985 217.16 82.4429C217.673 81.4873 218.438 80.6907 219.373 80.1397C221.89 78.8801 224.691 78.2923 227.503 78.4334C231.538 78.3438 235.545 79.1315 239.246 80.7419C239.962 81.1257 240.747 81.3645 241.555 81.4445C242.458 81.4445 242.96 80.8423 242.96 79.5375V76.6267C242.948 75.928 242.777 75.2412 242.458 74.6193C241.945 74.011 241.326 73.5009 240.631 73.1137C239.788 72.6856 238.916 72.3166 238.022 72.0096C236.903 71.6155 235.763 71.2805 234.609 71.0059C233.405 70.7048 231.999 70.5041 230.695 70.3033C229.332 70.1033 227.957 70.0026 226.579 70.0022C223.962 69.9676 221.354 70.34 218.851 71.1063C216.564 71.7312 214.418 72.7873 212.527 74.2178C210.724 75.5669 209.22 77.2759 208.111 79.2364C206.981 81.3291 206.427 83.6845 206.505 86.0616C206.473 89.2629 207.536 92.3791 209.516 94.8943C211.524 97.6043 214.736 99.6118 219.252 101.117L228.185 103.928C230.435 104.541 232.524 105.637 234.308 107.14C234.854 107.692 235.279 108.352 235.556 109.078C235.832 109.804 235.954 110.579 235.914 111.355C235.945 112.512 235.675 113.657 235.129 114.678C234.584 115.699 233.782 116.56 232.802 117.177C230.695 118.482 227.683 119.184 223.869 119.184C221.439 119.171 219.017 118.902 216.643 118.381C214.34 117.892 212.088 117.186 209.918 116.273C209.438 116.021 208.934 115.819 208.412 115.671C208.055 115.556 207.683 115.488 207.308 115.47C206.405 115.47 205.903 116.073 205.903 117.378V120.489C205.78 121.216 205.913 121.964 206.279 122.604C206.645 123.245 207.221 123.739 207.91 124.002H207.93Z" fill="#252F3E"/>
<path d="M104.648 94.2918C102.521 93.9752 100.375 93.8075 98.2245 93.79C92.0014 93.79 86.9829 95.3959 83.2691 98.5074C81.4467 100.034 80.0006 101.96 79.0432 104.136C78.0858 106.312 77.6428 108.679 77.7487 111.054C77.7487 115.972 79.2543 119.887 82.2654 122.797C85.2765 125.708 89.2914 127.214 94.4103 127.214C97.8469 127.254 101.248 126.516 104.359 125.056C107.471 123.596 110.211 121.451 112.377 118.782C113.079 120.087 113.682 121.292 114.284 122.396C114.874 123.439 115.618 124.386 116.492 125.206C116.723 125.455 117.002 125.655 117.313 125.793C117.624 125.931 117.959 126.005 118.299 126.009C118.871 125.998 119.428 125.824 119.905 125.507L123.819 122.898C124.144 122.708 124.421 122.446 124.63 122.133C124.838 121.82 124.973 121.464 125.024 121.091C124.997 120.598 124.86 120.118 124.622 119.686C123.811 118.282 123.139 116.803 122.615 115.269C122.134 113.503 121.898 111.68 121.912 109.849V90.0762C121.912 83.3848 120.206 78.3662 116.793 75.0205C113.381 71.7083 108.061 70.002 100.834 70.002C97.6176 70.0004 94.4139 70.4051 91.2988 71.2064C88.6416 71.9034 86.0545 72.8442 83.5702 74.0168C82.9265 74.3 82.3463 74.7095 81.8639 75.2213C81.5413 75.8744 81.4026 76.6031 81.4624 77.3291V80.3402C81.4624 81.645 81.8639 82.2473 82.7673 82.2473C83.1085 82.2195 83.4453 82.1521 83.771 82.0465C84.4896 81.823 85.1936 81.5548 85.8788 81.2436C87.9856 80.346 90.1692 79.6405 92.4029 79.1358C94.5391 78.6157 96.7285 78.3462 98.927 78.3328C103.645 78.3328 106.957 79.2361 108.864 81.1432C110.771 83.0502 111.775 86.2621 111.674 90.9796V95.4963C109.145 95.0948 106.856 94.6933 104.648 94.2918ZM111.674 105.032C111.672 106.822 111.47 108.606 111.072 110.351C110.675 111.799 109.954 113.137 108.964 114.266C107.412 116.081 105.391 117.435 103.123 118.18C101.092 118.903 98.9542 119.276 96.7992 119.284C95.6498 119.373 94.4945 119.223 93.4061 118.843C92.3177 118.463 91.32 117.861 90.4758 117.076C88.9702 115.571 88.2676 113.463 88.2676 110.652C88.1846 109.327 88.4138 108.001 88.9368 106.781C89.4598 105.561 90.2619 104.48 91.2788 103.626C93.2862 102.02 96.2973 101.217 100.312 101.117C102.227 101.101 104.14 101.235 106.033 101.519C107.923 101.756 109.799 102.091 111.654 102.522L111.674 105.032Z" fill="#252F3E"/>
<path d="M142.267 122.898C142.457 123.811 142.91 124.649 143.572 125.307C144.257 125.75 145.067 125.961 145.881 125.909H151.1C151.95 126.023 152.812 125.808 153.509 125.307C154.105 124.617 154.519 123.789 154.713 122.898L164.148 83.5523L173.684 122.898C173.77 123.823 174.199 124.683 174.888 125.307C175.59 125.796 176.447 126.01 177.297 125.909H182.516C183.334 126.01 184.16 125.795 184.825 125.307C185.45 124.623 185.899 123.796 186.13 122.898L200.884 75.7234C201.065 75.2351 201.199 74.7311 201.286 74.2178C201.369 73.89 201.403 73.5518 201.386 73.2141C201.433 72.869 201.344 72.5193 201.138 72.2385C200.932 71.9577 200.625 71.7677 200.282 71.7085H194.26C193.41 71.6074 192.553 71.8217 191.851 72.3107C191.255 73.0008 190.841 73.8288 190.646 74.7196L180.107 115.671L170.472 74.7196C170.36 73.802 169.934 72.9511 169.267 72.3107C168.565 71.8217 167.708 71.6074 166.858 71.7085H161.94C161.09 71.5946 160.228 71.81 159.531 72.3107C158.935 73.0008 158.521 73.8288 158.327 74.7196L148.792 115.069L138.574 74.7196C138.379 73.8288 137.965 73.0008 137.369 72.3107C136.667 71.8217 135.81 71.6074 134.96 71.7085H128.938C128.593 71.6619 128.243 71.7508 127.963 71.9568C127.682 72.1627 127.492 72.4695 127.432 72.8126V73.2141C127.542 74.0281 127.709 74.8331 127.934 75.623L142.267 122.898Z" fill="#252F3E"/>
<path d="M233.023 152.507C211.06 161.74 187.491 166.55 163.667 166.66C130.644 166.66 98.6259 157.626 72.8304 142.571C70.6223 141.266 68.916 143.574 70.823 145.281C95.7171 167.758 128.119 180.111 161.659 179.909C186.752 179.909 215.86 171.98 236.034 157.225C239.246 154.716 236.335 151.102 233.023 152.507Z" fill="#F8991D"/>
<path d="M220.276 144.176C218.469 145.381 218.77 147.187 220.778 146.886C227.302 146.083 241.655 144.377 244.265 147.689C246.874 151.002 241.354 164.552 238.945 170.574C238.243 172.381 239.748 173.184 241.454 171.778C252.294 162.745 255.005 143.875 252.796 141.165C250.588 138.455 231.819 136.046 220.276 144.176Z" fill="#F8991D"/>
<path d="M301.175 113.262C301.096 113.277 301.014 113.277 300.935 113.26C300.856 113.243 300.781 113.21 300.715 113.163C300.65 113.116 300.594 113.056 300.552 112.986C300.511 112.917 300.484 112.84 300.473 112.76V79.5368C300.457 79.4574 300.458 79.3757 300.475 79.2966C300.492 79.2175 300.525 79.1427 300.572 79.0769C300.619 79.0111 300.679 78.9556 300.748 78.9138C300.817 78.8721 300.894 78.845 300.975 78.8342H302.079C302.172 78.81 302.27 78.8072 302.364 78.8259C302.459 78.8446 302.548 78.8843 302.625 78.9422C302.702 79 302.765 79.0745 302.81 79.16C302.854 79.2456 302.879 79.3401 302.882 79.4364V79.5368L303.082 81.5442C304.374 80.4516 305.831 79.5708 307.398 78.9346C308.782 78.4262 310.241 78.1547 311.714 78.1316C313.135 78.0658 314.551 78.3414 315.843 78.9351C317.135 79.5289 318.266 80.4235 319.142 81.5442C320.949 83.7524 321.852 86.8639 321.852 90.7784C321.997 94.1958 320.97 97.5602 318.941 100.314C318.01 101.455 316.828 102.365 315.488 102.975C314.147 103.584 312.684 103.875 311.212 103.827C308.178 103.808 305.266 102.622 303.082 100.514V112.559C303.082 112.96 302.882 113.262 302.581 113.262H301.175ZM311.112 101.217C312.253 101.305 313.397 101.113 314.447 100.659C315.496 100.204 316.419 99.4997 317.134 98.6073C318.439 96.901 319.142 94.2914 319.142 90.8788C319.142 84.0535 316.532 80.5405 311.313 80.5405C308.362 80.6446 305.533 81.7409 303.283 83.652V97.9047C304.434 98.9115 305.717 99.7558 307.097 100.414C308.371 100.94 309.734 101.213 311.112 101.217Z" fill="#252F3E"/>
<path d="M333.977 103.827C333.008 103.881 332.037 103.74 331.124 103.412C330.21 103.085 329.371 102.577 328.657 101.92C327.969 101.264 327.434 100.467 327.087 99.5824C326.74 98.6981 326.591 97.7487 326.65 96.8007C326.607 95.7436 326.802 94.6904 327.219 93.718C327.635 92.7455 328.264 91.8784 329.059 91.1799C330.972 89.7717 333.31 89.063 335.683 89.1725C338.034 89.188 340.369 89.5603 342.609 90.2766V86.1614C342.609 84.154 342.107 82.7488 341.203 81.9458C339.865 80.9825 338.231 80.5207 336.586 80.641C334.16 80.6411 331.751 81.0482 329.46 81.8454C329.235 81.9277 328.996 81.9619 328.757 81.9458C328.456 81.9458 328.256 81.745 328.256 81.3436V80.5406C328.24 80.3347 328.274 80.128 328.356 79.9384C328.475 79.7531 328.651 79.6121 328.858 79.5369C331.451 78.5361 334.208 78.0255 336.988 78.0313C339.798 78.0313 341.906 78.6335 343.311 79.838C344.036 80.5334 344.6 81.3787 344.964 82.3149C345.329 83.2511 345.484 84.2556 345.419 85.258V102.422C345.419 102.823 345.218 103.124 344.817 103.124H343.612C343.428 103.138 343.246 103.084 343.098 102.974C342.95 102.863 342.848 102.702 342.809 102.522V102.422L342.609 100.314C340.262 102.507 337.188 103.758 333.977 103.827ZM334.378 101.217C335.755 101.202 337.117 100.93 338.393 100.414C339.923 99.9167 341.376 99.2072 342.709 98.3063V92.1837C340.655 91.5819 338.526 91.2777 336.386 91.2803C331.869 91.2803 329.56 92.9866 329.56 96.4996C329.498 97.7513 329.93 98.9772 330.765 99.9123C331.235 100.381 331.802 100.742 332.426 100.967C333.051 101.192 333.717 101.278 334.378 101.217Z" fill="#252F3E"/>
<path d="M353.67 103.225C353.268 103.225 352.967 103.024 352.967 102.723V79.5371C352.951 79.4578 352.952 79.376 352.969 79.2969C352.986 79.2178 353.019 79.1431 353.066 79.0772C353.113 79.0114 353.173 78.9559 353.242 78.9142C353.312 78.8724 353.389 78.8453 353.469 78.8345H354.573C354.666 78.8104 354.764 78.8076 354.858 78.8262C354.953 78.8449 355.042 78.8847 355.119 78.9425C355.196 79.0004 355.259 79.0748 355.304 79.1604C355.348 79.2459 355.373 79.3404 355.376 79.4368V79.5371L355.577 82.3475C356.566 81.1374 357.797 80.1462 359.19 79.4368C360.436 78.8267 361.82 78.55 363.205 78.6338H364.51C364.603 78.631 364.695 78.6473 364.782 78.6816C364.868 78.7159 364.947 78.7676 365.013 78.8334C365.078 78.8992 365.13 78.9778 365.164 79.0643C365.199 79.1508 365.215 79.2434 365.212 79.3364V80.6412C365.212 80.7416 365.112 80.9423 365.112 81.0427C365.064 81.1039 365.003 81.1537 364.934 81.1884C364.864 81.2232 364.788 81.242 364.71 81.2434H363.004C361.659 81.2477 360.328 81.5207 359.09 82.0464C357.817 82.7222 356.692 83.6433 355.777 84.7564V102.623C355.793 102.702 355.793 102.784 355.776 102.863C355.759 102.942 355.725 103.017 355.678 103.082C355.631 103.148 355.571 103.204 355.502 103.246C355.433 103.287 355.356 103.314 355.276 103.325H355.055L353.67 103.225Z" fill="#252F3E"/>
<path d="M378.14 103.526C377.341 103.585 376.537 103.482 375.778 103.224C375.019 102.965 374.321 102.556 373.724 102.02C373.188 101.423 372.779 100.725 372.52 99.9657C372.262 99.2068 372.159 98.4034 372.218 97.6038V81.2433H368.404C368.003 81.2433 367.702 81.0425 367.702 80.7414V80.0388C367.686 79.8329 367.72 79.6263 367.802 79.4366C367.881 79.3601 367.976 79.3024 368.08 79.2676C368.184 79.2329 368.295 79.222 368.404 79.2359L372.319 78.9347L372.62 72.511C372.641 72.2977 372.709 72.0918 372.82 71.9088C372.958 71.7828 373.136 71.7114 373.322 71.708H374.226C374.627 71.708 374.928 71.9088 374.928 72.3102V78.8344H381.954C382.356 78.8344 382.657 79.0351 382.657 79.3362V80.5407C382.673 80.62 382.672 80.7018 382.655 80.7809C382.638 80.86 382.605 80.9347 382.558 81.0006C382.511 81.0664 382.451 81.1219 382.382 81.1637C382.312 81.2054 382.235 81.2325 382.155 81.2433H374.928V97.4031C374.876 97.9085 374.93 98.4193 375.085 98.903C375.241 99.3867 375.495 99.833 375.832 100.213C376.634 100.825 377.638 101.111 378.642 101.016C379.482 100.999 380.32 100.932 381.151 100.816L381.954 100.615C382.155 100.615 382.255 100.515 382.456 100.515C382.858 100.515 382.958 100.715 382.958 101.117V101.819C382.958 102.422 382.757 102.723 382.456 102.823C381.068 103.3 379.608 103.538 378.14 103.526Z" fill="#252F3E"/>
<path d="M388.9 103.225C388.498 103.225 388.197 103.024 388.197 102.623V79.5371C388.197 79.1356 388.398 78.8345 388.8 78.8345H390.004C390.097 78.8104 390.195 78.8076 390.29 78.8263C390.384 78.8449 390.473 78.8847 390.55 78.9425C390.627 79.0004 390.691 79.0748 390.735 79.1604C390.779 79.2459 390.804 79.3404 390.807 79.4368V79.5371L391.008 81.6449C392.536 80.5211 394.229 79.6408 396.026 79.0353C397.664 78.4273 399.398 78.1212 401.145 78.1319C402.131 78.0629 403.12 78.1965 404.053 78.5245C404.985 78.8525 405.84 79.3679 406.565 80.039C407.883 81.5679 408.565 83.5432 408.472 85.5594V102.623C408.488 102.702 408.488 102.784 408.471 102.863C408.454 102.942 408.42 103.017 408.373 103.082C408.326 103.148 408.266 103.204 408.197 103.246C408.128 103.287 408.051 103.314 407.97 103.325H406.465C406.063 103.325 405.762 103.124 405.762 102.823V86.6635C405.866 85.0352 405.443 83.4168 404.558 82.0464C404.058 81.5255 403.445 81.1275 402.766 80.8837C402.087 80.6399 401.36 80.5569 400.643 80.6412C397.254 80.6897 393.962 81.7756 391.208 83.7527V102.522C391.224 102.602 391.224 102.683 391.207 102.762C391.19 102.841 391.157 102.916 391.11 102.982C391.063 103.048 391.003 103.103 390.933 103.145C390.864 103.187 390.787 103.214 390.707 103.225H388.9Z" fill="#252F3E"/>
<path d="M426.138 103.928C422.324 103.928 419.413 102.823 417.405 100.615C415.498 98.4071 414.495 95.1953 414.495 90.8793C414.495 86.7641 415.498 83.6526 417.405 81.344C418.449 80.2135 419.725 79.3229 421.146 78.7337C422.567 78.1445 424.099 77.8708 425.636 77.9314C426.885 77.8539 428.137 78.0369 429.312 78.4689C430.487 78.9009 431.559 79.5723 432.461 80.4407C434.098 82.4813 434.92 85.0559 434.77 87.6674C434.803 88.642 434.736 89.6174 434.569 90.5782C434.568 90.679 434.546 90.7786 434.504 90.8703C434.462 90.962 434.401 91.0438 434.326 91.1102C434.25 91.1766 434.161 91.2262 434.064 91.2556C433.968 91.285 433.866 91.2936 433.766 91.2808H417.285C417.285 94.6934 418.088 97.2027 419.493 98.8086C420.898 100.415 423.207 101.218 426.218 101.218C428.481 101.226 430.727 100.818 432.843 100.013C433.131 99.8988 433.436 99.831 433.746 99.8123C433.846 99.8123 433.947 99.9127 434.047 100.013C434.147 100.113 434.248 100.314 434.147 100.415V101.117C434.149 101.312 434.104 101.505 434.017 101.679C433.93 101.854 433.802 102.005 433.645 102.121C431.358 103.406 428.759 104.032 426.138 103.928ZM432.06 89.2734V87.6674C432.16 85.7453 431.553 83.853 430.353 82.3477C429.687 81.7157 428.897 81.2288 428.034 80.9178C427.17 80.6069 426.251 80.4785 425.335 80.541C420.216 80.541 417.506 83.4518 417.205 89.2734H432.06Z" fill="#252F3E"/>
<path d="M441.695 103.225C441.294 103.225 440.993 103.024 440.993 102.723V79.5371C440.977 79.4578 440.978 79.376 440.995 79.2969C441.012 79.2178 441.045 79.1431 441.092 79.0772C441.139 79.0114 441.199 78.9559 441.268 78.9142C441.337 78.8724 441.414 78.8453 441.495 78.8345H442.599C442.692 78.8104 442.79 78.8076 442.884 78.8262C442.979 78.8449 443.068 78.8847 443.145 78.9425C443.222 79.0004 443.285 79.0748 443.33 79.1604C443.374 79.2459 443.399 79.3404 443.402 79.4368V79.5371L443.602 82.3475C444.592 81.1374 445.823 80.1462 447.216 79.4368C448.462 78.8267 449.845 78.55 451.231 78.6338H452.535C452.628 78.631 452.721 78.6473 452.808 78.6816C452.894 78.7159 452.973 78.7676 453.038 78.8334C453.104 78.8992 453.156 78.9778 453.19 79.0643C453.225 79.1508 453.241 79.2434 453.238 79.3364V80.6412C453.238 80.7416 453.138 80.9423 453.138 81.0427C453.09 81.1039 453.029 81.1537 452.96 81.1884C452.89 81.2232 452.814 81.242 452.736 81.2434H451.03C449.685 81.2477 448.354 81.5207 447.115 82.0464C445.843 82.7222 444.717 83.6433 443.803 84.7564V102.623C443.819 102.702 443.818 102.784 443.801 102.863C443.784 102.942 443.751 103.017 443.704 103.082C443.657 103.148 443.597 103.204 443.528 103.246C443.459 103.287 443.381 103.314 443.301 103.325H443.101L441.695 103.225Z" fill="#252F3E"/>
<path d="M301.175 157.225C300.774 157.225 300.473 157.024 300.473 156.623V133.537C300.473 133.136 300.673 132.835 300.975 132.835H302.179C302.272 132.81 302.37 132.808 302.465 132.826C302.559 132.845 302.648 132.885 302.725 132.943C302.803 133 302.866 133.075 302.91 133.16C302.954 133.246 302.979 133.34 302.982 133.437V133.537L303.183 135.645C304.711 134.521 306.404 133.641 308.201 133.035C309.841 132.436 311.574 132.13 313.32 132.132C314.306 132.063 315.296 132.197 316.228 132.524C317.16 132.852 318.015 133.368 318.74 134.039C320.058 135.568 320.74 137.543 320.647 139.559V156.623C320.663 156.702 320.663 156.784 320.646 156.863C320.629 156.942 320.596 157.017 320.549 157.082C320.501 157.148 320.441 157.204 320.372 157.246C320.303 157.287 320.226 157.314 320.146 157.325H318.64C318.238 157.325 317.937 157.124 317.937 156.723V140.563C318.041 138.935 317.618 137.316 316.733 135.946C316.229 135.432 315.614 135.038 314.937 134.795C314.259 134.552 313.535 134.465 312.818 134.541C309.429 134.589 306.137 135.675 303.384 137.652V156.422C303.399 156.501 303.399 156.583 303.382 156.662C303.365 156.741 303.332 156.816 303.285 156.882C303.238 156.948 303.178 157.003 303.108 157.045C303.039 157.087 302.962 157.114 302.882 157.124H302.681L301.175 157.225Z" fill="#252F3E"/>
<path d="M338.313 157.928C334.499 157.928 331.588 156.824 329.581 154.616C327.674 152.407 326.67 149.195 326.67 144.879C326.67 140.764 327.674 137.653 329.581 135.344C330.624 134.214 331.9 133.323 333.321 132.734C334.742 132.145 336.274 131.871 337.811 131.932C339.063 131.832 340.321 132.005 341.499 132.438C342.677 132.871 343.747 133.555 344.636 134.441C346.242 136.147 346.945 138.556 346.945 141.668C346.978 142.642 346.911 143.618 346.744 144.578C346.744 144.679 346.722 144.779 346.68 144.871C346.638 144.962 346.577 145.044 346.501 145.11C346.425 145.177 346.336 145.226 346.239 145.256C346.143 145.285 346.041 145.294 345.941 145.281H329.48C329.48 148.694 330.283 151.203 331.688 152.809C333.094 154.415 335.402 155.218 338.413 155.218C340.677 155.226 342.922 154.818 345.038 154.013C345.326 153.899 345.631 153.831 345.941 153.813C346.042 153.813 346.242 153.913 346.242 154.013C346.242 154.114 346.443 154.314 346.343 154.415V155.117C346.344 155.312 346.3 155.505 346.212 155.68C346.125 155.854 345.998 156.005 345.841 156.121C343.521 157.341 340.934 157.962 338.313 157.928ZM344.335 143.173V141.567C344.435 139.645 343.828 137.753 342.629 136.248C341.963 135.616 341.173 135.129 340.309 134.818C339.445 134.507 338.526 134.378 337.61 134.441C332.491 134.441 329.781 137.352 329.48 143.173H344.335Z" fill="#252F3E"/>
<path d="M360.696 157.526C359.893 157.629 359.078 157.547 358.313 157.286C357.547 157.025 356.852 156.592 356.28 156.02C355.708 155.448 355.275 154.752 355.013 153.987C354.752 153.221 354.67 152.406 354.774 151.604V135.243H350.96C350.558 135.243 350.257 135.042 350.257 134.641V133.938C350.241 133.732 350.276 133.526 350.357 133.336C350.436 133.26 350.531 133.202 350.636 133.167C350.74 133.132 350.851 133.121 350.96 133.135L354.874 132.834L355.175 126.41C355.196 126.197 355.265 125.991 355.376 125.808C355.513 125.682 355.692 125.611 355.878 125.607H356.781C357.183 125.607 357.484 125.808 357.484 126.21V132.734H364.51C364.589 132.718 364.671 132.719 364.75 132.736C364.829 132.753 364.904 132.786 364.97 132.833C365.035 132.88 365.091 132.94 365.133 133.009C365.174 133.078 365.202 133.155 365.212 133.236V134.44C365.212 134.842 365.012 135.143 364.61 135.143H357.383V151.302C357.268 151.801 357.281 152.32 357.422 152.811C357.563 153.303 357.826 153.75 358.188 154.112C358.549 154.473 358.997 154.737 359.488 154.877C359.98 155.018 360.499 155.031 360.997 154.916C361.836 154.899 362.674 154.832 363.506 154.715L364.409 154.514C364.61 154.514 364.71 154.414 364.911 154.414C365.313 154.414 365.413 154.615 365.413 155.016V155.719C365.413 156.321 365.212 156.622 364.911 156.723C363.582 157.296 362.143 157.57 360.696 157.526Z" fill="#252F3E"/>
<path d="M376.554 157.225C376.35 157.214 376.154 157.141 375.993 157.015C375.831 156.889 375.712 156.718 375.651 156.522L367.922 133.939C367.81 133.72 367.741 133.481 367.722 133.236C367.722 132.935 367.922 132.835 368.324 132.835H369.829C370.013 132.821 370.196 132.874 370.344 132.985C370.492 133.096 370.594 133.256 370.632 133.437L377.257 154.013L383.159 133.437C383.22 133.242 383.339 133.07 383.5 132.944C383.662 132.819 383.858 132.745 384.062 132.734H385.869C386.073 132.745 386.269 132.819 386.43 132.944C386.592 133.07 386.711 133.242 386.772 133.437L392.594 154.113L399.419 133.337C399.519 132.935 399.82 132.634 400.222 132.734H401.727C402.129 132.734 402.33 132.835 402.33 133.136C402.324 133.383 402.254 133.625 402.129 133.838L394.2 156.422C394.139 156.617 394.019 156.789 393.858 156.915C393.696 157.04 393.5 157.113 393.296 157.125H391.69C391.486 157.113 391.29 157.04 391.129 156.915C390.967 156.789 390.848 156.617 390.787 156.422L384.865 135.745L379.043 156.422C378.982 156.617 378.863 156.789 378.702 156.915C378.54 157.04 378.344 157.113 378.14 157.125H376.534L376.554 157.225Z" fill="#252F3E"/>
<path d="M416.803 157.927C415.248 158.011 413.694 157.749 412.253 157.159C410.813 156.569 409.521 155.665 408.472 154.514C406.465 152.206 405.461 149.094 405.461 144.979C405.461 140.864 406.465 137.752 408.472 135.444C409.521 134.293 410.813 133.389 412.253 132.799C413.694 132.209 415.248 131.947 416.803 132.031C420.417 132.031 423.127 133.135 425.134 135.444C427.141 137.752 428.145 140.864 428.145 144.979C428.145 149.094 427.141 152.206 425.134 154.514C424.091 155.673 422.801 156.581 421.358 157.172C419.916 157.763 418.359 158.021 416.803 157.927ZM416.803 155.418C422.424 155.418 425.234 151.905 425.234 144.979C425.234 138.053 422.424 134.54 416.803 134.54C411.182 134.54 408.372 138.053 408.372 144.879C408.372 151.704 411.263 155.317 416.803 155.418Z" fill="#252F3E"/>
<path d="M435.171 157.225C434.77 157.225 434.469 157.024 434.469 156.623V133.537C434.469 133.136 434.669 132.835 434.97 132.835H436.074C436.168 132.81 436.265 132.808 436.36 132.826C436.455 132.845 436.544 132.885 436.621 132.943C436.698 133 436.761 133.075 436.805 133.16C436.85 133.246 436.874 133.34 436.877 133.437V133.537L437.078 136.348C438.068 135.137 439.298 134.146 440.692 133.437C441.938 132.827 443.321 132.55 444.706 132.634H446.011C446.104 132.631 446.197 132.647 446.283 132.682C446.37 132.716 446.448 132.768 446.514 132.833C446.58 132.899 446.632 132.978 446.666 133.064C446.7 133.151 446.717 133.243 446.714 133.336V134.641C446.714 134.742 446.613 134.942 446.613 135.043C446.566 135.104 446.505 135.154 446.435 135.188C446.366 135.223 446.29 135.242 446.212 135.243H444.506C443.102 135.195 441.707 135.48 440.434 136.073C439.16 136.666 438.045 137.551 437.179 138.656V156.522C437.179 156.924 436.978 157.225 436.576 157.225H435.171Z" fill="#252F3E"/>
<path d="M451.833 157.225C451.431 157.225 451.13 157.024 451.13 156.623V121.995C451.13 121.593 451.331 121.292 451.732 121.292H453.238C453.639 121.292 453.941 121.493 453.941 121.794V143.675L465.584 133.236C465.911 132.929 466.339 132.75 466.788 132.734H468.474C468.876 132.734 469.077 132.835 469.077 133.136C469.077 133.437 468.876 133.537 468.575 133.838L456.831 144.377L469.578 156.121C469.88 156.422 469.98 156.623 469.98 156.723C469.98 157.024 469.779 157.225 469.378 157.225H467.27C466.871 157.198 466.488 157.059 466.166 156.823L453.84 145.281V156.522C453.856 156.602 453.855 156.683 453.838 156.763C453.821 156.842 453.788 156.916 453.741 156.982C453.694 157.048 453.634 157.104 453.565 157.145C453.496 157.187 453.419 157.214 453.338 157.225H451.833Z" fill="#252F3E"/>
</g>
</g>
</g>
<defs>
<clipPath id="clip0_60_2852">
<rect width="400" height="109.91" fill="white" transform="translate(70 70)"/>
</clipPath>
<clipPath id="clip1_60_2852">
<rect width="400" height="109.91" fill="white" transform="translate(70 70)"/>
</clipPath>
<clipPath id="clip2_60_2852">
<rect width="400" height="109.907" fill="white" transform="translate(70 70.002)"/>
</clipPath>
</defs>
</svg>
