<svg width="51" height="26" viewBox="0 0 51 26" fill="none" xmlns="http://www.w3.org/2000/svg">
<mask id="path-1-inside-1_60_3081" fill="white">
<path d="M50.5 0.941406H0.5L26.12 25.9414L50.5 0.941406Z"/>
</mask>
<path d="M50.5 0.941406V-24.0586H109.8L68.3982 18.3957L50.5 0.941406ZM0.5 0.941406L-16.9598 18.8343L-60.9165 -24.0586H0.5V0.941406ZM26.12 25.9414L44.0182 43.3957L26.5586 61.2995L8.66019 43.8343L26.12 25.9414ZM50.5 25.9414H0.5V-24.0586H50.5V25.9414ZM17.9598 -16.9514L43.5799 8.04855L8.66019 43.8343L-16.9598 18.8343L17.9598 -16.9514ZM8.2218 8.48708L32.6018 -16.5129L68.3982 18.3957L44.0182 43.3957L8.2218 8.48708Z" fill="#D8E3EA" mask="url(#path-1-inside-1_60_3081)"/>
</svg>
