<svg width="51" height="26" viewBox="0 0 51 26" fill="none" xmlns="http://www.w3.org/2000/svg">
<mask id="path-1-inside-1_60_3092" fill="white">
<path d="M50.5 25.2998H0.5L26.12 0.299805L50.5 25.2998Z"/>
</mask>
<path d="M50.5 25.2998V50.2998H109.8L68.3982 7.84548L50.5 25.2998ZM0.5 25.2998L-16.9598 7.40695L-60.9165 50.2998H0.5V25.2998ZM26.12 0.299805L44.0182 -17.1545L26.5586 -35.0583L8.66019 -17.593L26.12 0.299805ZM50.5 0.299805H0.5V50.2998H50.5V0.299805ZM17.9598 43.1927L43.5799 18.1927L8.66019 -17.593L-16.9598 7.40695L17.9598 43.1927ZM8.2218 17.7541L32.6018 42.7541L68.3982 7.84548L44.0182 -17.1545L8.2218 17.7541Z" fill="#D8E3EA" mask="url(#path-1-inside-1_60_3092)"/>
</svg>
