<svg width="51" height="26" viewBox="0 0 51 26" fill="none" xmlns="http://www.w3.org/2000/svg">
<mask id="path-1-inside-1_69_5332" fill="white">
<path d="M50.5 0.939453H0.5L26.12 25.9395L50.5 0.939453Z"/>
</mask>
<path d="M50.5 0.939453V-24.0605H109.8L68.3982 18.3938L50.5 0.939453ZM0.5 0.939453L-16.9598 18.8323L-60.9165 -24.0605H0.5V0.939453ZM26.12 25.9395L44.0182 43.3938L26.5586 61.2975L8.66019 43.8323L26.12 25.9395ZM50.5 25.9395H0.5V-24.0605H50.5V25.9395ZM17.9598 -16.9534L43.5799 8.0466L8.66019 43.8323L-16.9598 18.8323L17.9598 -16.9534ZM8.2218 8.48512L32.6018 -16.5149L68.3982 18.3938L44.0182 43.3938L8.2218 8.48512Z" fill="#D8E3EA" mask="url(#path-1-inside-1_69_5332)"/>
</svg>
