<svg width="51" height="51" viewBox="0 0 51 51" fill="none" xmlns="http://www.w3.org/2000/svg">
<g clip-path="url(#clip0_69_8346)">
<g clip-path="url(#clip1_69_8346)">
<path d="M43.9112 37.3799L37.0612 44.2361L32.98 40.1424" stroke="#4392C5" stroke-width="3.125" stroke-miterlimit="56"/>
<g clip-path="url(#clip2_69_8346)">
<path d="M23.6837 11.6282H30.5725L38.1272 4.0584C38.3407 3.8434 38.5946 3.67275 38.8745 3.5563C39.1543 3.43984 39.4544 3.37988 39.7575 3.37988C40.0607 3.37988 40.3608 3.43984 40.6406 3.5563C40.9205 3.67275 41.1744 3.8434 41.3879 4.0584L47.3122 9.99952C47.7399 10.4293 47.98 11.0107 47.98 11.6167C47.98 12.2227 47.7399 12.8041 47.3122 13.2339L42.0538 18.5098H23.6837V23.0975C23.6837 23.7059 23.4418 24.2893 23.0112 24.7195C22.5805 25.1497 21.9965 25.3914 21.3875 25.3914C20.7785 25.3914 20.1944 25.1497 19.7638 24.7195C19.3331 24.2893 19.0912 23.7059 19.0912 23.0975V16.2159C19.0912 14.9991 19.5751 13.8322 20.4363 12.9719C21.2976 12.1115 22.4657 11.6282 23.6837 11.6282ZM9.90615 23.0975V32.2729L4.64772 37.5259C4.22004 37.9557 3.97998 38.5371 3.97998 39.1431C3.97998 39.7491 4.22004 40.3305 4.64772 40.7603L10.5721 46.7014C10.7855 46.9164 11.0395 47.087 11.3193 47.2035C11.5991 47.3199 11.8993 47.3799 12.2024 47.3799C12.5055 47.3799 12.8057 47.3199 13.0855 47.2035C13.3653 47.087 13.6193 46.9164 13.8328 46.7014L23.6837 36.8607H32.8688C33.4778 36.8607 34.0618 36.619 34.4925 36.1888C34.9231 35.7586 35.165 35.1752 35.165 34.5668V32.2729H37.4613C38.0703 32.2729 38.6544 32.0313 39.085 31.6011C39.5156 31.1709 39.7575 30.5875 39.7575 29.9791V27.6852H42.0538C42.6628 27.6852 43.2469 27.4435 43.6775 27.0134C44.1081 26.5832 44.3501 25.9997 44.3501 25.3914V23.0975H28.2762V25.3914C28.2762 26.6081 27.7924 27.775 26.9311 28.6354C26.0699 29.4957 24.9017 29.9791 23.6837 29.9791H19.0912C17.8732 29.9791 16.7051 29.4957 15.8438 28.6354C14.9825 27.775 14.4987 26.6081 14.4987 25.3914V18.5098L9.90615 23.0975Z" fill="#4392C5"/>
</g>
</g>
</g>
<defs>
<clipPath id="clip0_69_8346">
<rect width="50" height="50" fill="white" transform="translate(0.5 0.799805)"/>
</clipPath>
<clipPath id="clip1_69_8346">
<rect width="50" height="50" fill="white" transform="translate(0.5 0.799805)"/>
</clipPath>
<clipPath id="clip2_69_8346">
<rect width="44" height="44" fill="white" transform="translate(3.97998 3.37988)"/>
</clipPath>
</defs>
</svg>
