<svg width="51" height="51" viewBox="0 0 51 51" fill="none" xmlns="http://www.w3.org/2000/svg">
<g clip-path="url(#clip0_69_8336)">
<g clip-path="url(#clip1_69_8336)">
<g clip-path="url(#clip2_69_8336)">
<path d="M28.005 13.9024C35.925 13.9024 40.42 19.1449 41.0725 25.4774H41.2725C42.4832 25.4757 43.6823 25.7126 44.8014 26.1745C45.9205 26.6363 46.9377 27.3141 47.7948 28.1692C48.6519 29.0242 49.3322 30.0397 49.7968 31.1577C50.2614 32.2757 50.5012 33.4742 50.5025 34.6849C50.5009 35.8953 50.2608 37.0936 49.7961 38.2113C49.3313 39.329 48.651 40.3442 47.7939 41.199C46.9368 42.0537 45.9198 42.7313 44.8008 43.193C43.6819 43.6547 42.483 43.8915 41.2725 43.8899H14.735C13.5245 43.8915 12.3256 43.6547 11.2067 43.193C10.0877 42.7313 9.07067 42.0537 8.21358 41.199C7.3565 40.3442 6.67616 39.329 6.21142 38.2113C5.74669 37.0936 5.50664 35.8953 5.505 34.6849C5.50631 33.4742 5.74611 32.2757 6.21071 31.1577C6.6753 30.0397 7.35558 29.0242 8.2127 28.1692C9.06982 27.3141 10.087 26.6363 11.2061 26.1745C12.3252 25.7126 13.5243 25.4757 14.735 25.4774H14.935C15.5925 19.1024 20.085 13.9024 28.005 13.9024ZM20.5 6.37988C24.5425 6.37988 28.125 8.41738 30.25 11.5349C29.505 11.4458 28.7553 11.4016 28.005 11.4024C20.52 11.4024 15.0775 15.5949 13.1625 21.9349L12.9925 22.5349L12.8475 23.1299L12.3325 23.2274C10.3615 23.6465 8.53207 24.5675 7.02146 25.9012C5.51084 27.2349 4.3702 28.936 3.71 30.8399C2.38092 29.8205 1.39566 28.4188 0.886572 26.8231C0.377487 25.2273 0.368971 23.514 0.86217 21.9133C1.35537 20.3126 2.32665 18.9012 3.64553 17.8686C4.96441 16.8361 6.5677 16.232 8.24 16.1374L8.8825 16.1224C9.36592 13.3924 10.7951 10.9198 12.9195 9.13836C15.0438 7.35689 17.7276 6.38029 20.5 6.37988Z" fill="#4392C5"/>
<path d="M37.743 11.0369L34.914 8.20888L33.5 9.62288L37.743 13.8659L44.813 6.79488L43.4 5.37988L37.743 11.0369Z" fill="#4392C5"/>
</g>
</g>
</g>
<defs>
<clipPath id="clip0_69_8336">
<rect width="50" height="50" fill="white" transform="translate(0.5 0.799805)"/>
</clipPath>
<clipPath id="clip1_69_8336">
<rect width="50" height="50" fill="white" transform="translate(0.5 0.799805)"/>
</clipPath>
<clipPath id="clip2_69_8336">
<rect width="50" height="50" fill="white" transform="translate(0.5 0.799805)"/>
</clipPath>
</defs>
</svg>
