<svg width="51" height="51" viewBox="0 0 51 51" fill="none" xmlns="http://www.w3.org/2000/svg">
<g clip-path="url(#clip0_69_8364)">
<g clip-path="url(#clip1_69_8364)">
<path d="M31.95 9.37988C36.1934 9.37988 40.2631 11.0656 43.2637 14.0662C46.2642 17.0668 47.95 21.1364 47.95 25.3799C47.95 29.6233 46.2642 33.693 43.2637 36.6936C40.2631 39.6942 36.1934 41.3799 31.95 41.3799C27.7065 41.3799 23.6368 39.6942 20.6362 36.6936C17.6357 33.693 15.95 29.6233 15.95 25.3799C15.95 21.1364 17.6357 17.0668 20.6362 14.0662C23.6368 11.0656 27.7065 9.37988 31.95 9.37988ZM31.95 13.3799C28.7674 13.3799 25.7151 14.6442 23.4647 16.8946C21.2142 19.145 19.95 22.1973 19.95 25.3799C19.95 28.5625 21.2142 31.6147 23.4647 33.8652C25.7151 36.1156 28.7674 37.3799 31.95 37.3799C35.1325 37.3799 38.1848 36.1156 40.4352 33.8652C42.6857 31.6147 43.95 28.5625 43.95 25.3799C43.95 22.1973 42.6857 19.145 40.4352 16.8946C38.1848 14.6442 35.1325 13.3799 31.95 13.3799ZM29.95 17.3799H32.95V24.9399L37.61 29.5999L35.49 31.7199L29.95 26.1799V17.3799ZM5.94995 37.3799C5.41952 37.3799 4.91081 37.1692 4.53574 36.7941C4.16066 36.419 3.94995 35.9103 3.94995 35.3799C3.94995 34.8494 4.16066 34.3407 4.53574 33.9657C4.91081 33.5906 5.41952 33.3799 5.94995 33.3799H13.61C14.23 34.7999 15.03 36.1399 15.95 37.3799H5.94995ZM7.94995 27.3799C7.41952 27.3799 6.91081 27.1692 6.53574 26.7941C6.16066 26.419 5.94995 25.9103 5.94995 25.3799C5.94995 24.8494 6.16066 24.3407 6.53574 23.9657C6.91081 23.5906 7.41952 23.3799 7.94995 23.3799H12.05L11.95 25.3799L12.05 27.3799H7.94995ZM9.94995 17.3799C9.41952 17.3799 8.91081 17.1692 8.53574 16.7941C8.16066 16.419 7.94995 15.9103 7.94995 15.3799C7.94995 14.8494 8.16066 14.3407 8.53574 13.9657C8.91081 13.5906 9.41952 13.3799 9.94995 13.3799H15.95C15.03 14.6199 14.23 15.9599 13.61 17.3799H9.94995Z" fill="#4392C5"/>
</g>
</g>
<defs>
<clipPath id="clip0_69_8364">
<rect width="50" height="50" fill="white" transform="translate(0.5 0.799805)"/>
</clipPath>
<clipPath id="clip1_69_8364">
<rect width="50" height="50" fill="white" transform="translate(0.5 0.799805)"/>
</clipPath>
</defs>
</svg>
