<svg width="17" height="17" viewBox="0 0 17 17" fill="none" xmlns="http://www.w3.org/2000/svg">
<path fill-rule="evenodd" clip-rule="evenodd" d="M8.36002 16.5928C12.7783 16.5928 16.36 13.0111 16.36 8.59277C16.36 4.17449 12.7783 0.592773 8.36002 0.592773C3.94174 0.592773 0.360016 4.17449 0.360016 8.59277C0.360016 13.0111 3.94174 16.5928 8.36002 16.5928ZM12.1619 6.64278C12.5486 6.59687 12.9174 6.49405 13.2603 6.34203C13.004 6.7255 12.6798 7.06219 12.3059 7.33172C12.3096 7.41358 12.3115 7.49615 12.3115 7.579C12.3115 10.1062 10.388 13.0199 6.87075 13.0199C5.79092 13.0199 4.78554 12.7035 3.93973 12.1607C4.08904 12.1786 4.24163 12.1875 4.39565 12.1875C5.29179 12.1875 6.11621 11.8819 6.77078 11.369C5.93381 11.3534 5.22776 10.8005 4.98447 10.041C5.10113 10.0632 5.22078 10.0751 5.34427 10.0751C5.5184 10.0751 5.68767 10.0518 5.84796 10.0079C4.97335 9.83235 4.31393 9.05956 4.31393 8.13303L4.31408 8.10879C4.57177 8.2524 4.86682 8.33839 5.18013 8.34823C4.66732 8.0054 4.32948 7.41985 4.32948 6.75659C4.32948 6.4062 4.42388 6.07749 4.58845 5.79513C5.53166 6.95239 6.94077 7.71363 8.52998 7.79334C8.49719 7.6533 8.48021 7.50741 8.48021 7.35753C8.48021 6.30167 9.33657 5.44531 10.3924 5.44531C10.9427 5.44531 11.4397 5.67747 11.7885 6.04897C12.2239 5.96326 12.6334 5.80425 13.0029 5.58506C12.8598 6.03185 12.5568 6.4062 12.1619 6.64278Z" fill="#6095E3"/>
</svg>
