<svg width="17" height="17" viewBox="0 0 17 17" fill="none" xmlns="http://www.w3.org/2000/svg">
<path fill-rule="evenodd" clip-rule="evenodd" d="M8.36002 16.4524C12.7783 16.4524 16.36 12.9021 16.36 8.52259C16.36 4.14307 12.7783 0.592773 8.36002 0.592773C3.94174 0.592773 0.360016 4.14307 0.360016 8.52259C0.360016 12.9021 3.94174 16.4524 8.36002 16.4524ZM4.22013 4.96603C4.22013 4.40682 4.64809 3.9812 5.30223 3.9812C5.95652 3.9812 6.35853 4.40682 6.37122 4.96603C6.37122 5.51336 5.95652 5.95129 5.28954 5.95129H5.27714C4.63569 5.95129 4.22013 5.51336 4.22013 4.96603ZM13.1399 12.4301V9.16079C13.1399 7.41008 12.1967 6.5953 10.9386 6.5953C9.92258 6.5953 9.46937 7.14942 9.21524 7.53702V6.72917H7.30273C7.3284 7.26392 7.30273 12.43 7.30273 12.43H9.2151V9.24602C9.2151 9.07512 9.22808 8.90592 9.27842 8.78407C9.41703 8.44312 9.73091 8.091 10.2593 8.091C10.9516 8.091 11.2277 8.61402 11.2277 9.37989V12.4301H13.1399ZM9.21524 7.53702V7.55568H9.20255C9.20437 7.55245 9.20675 7.54918 9.20916 7.54588C9.21129 7.54296 9.21344 7.54 9.21524 7.53702ZM4.33378 12.4301H6.24544V6.72917H4.33378V12.4301Z" fill="#6095E3"/>
</svg>
