<svg width="17" height="17" viewBox="0 0 17 17" fill="none" xmlns="http://www.w3.org/2000/svg">
<path fill-rule="evenodd" clip-rule="evenodd" d="M8.36002 16.5928C12.7783 16.5928 16.36 13.0111 16.36 8.59277C16.36 4.17449 12.7783 0.592773 8.36002 0.592773C3.94174 0.592773 0.360016 4.17449 0.360016 8.59277C0.360016 13.0111 3.94174 16.5928 8.36002 16.5928ZM11.0366 5.35327H5.68352C4.63327 5.35327 3.7819 6.20467 3.7819 7.25489V9.93089C3.7819 10.9812 4.6333 11.8325 5.68352 11.8325H11.0366C12.0868 11.8325 12.9382 10.9811 12.9382 9.93089V7.25489C12.9382 6.20467 12.0868 5.35327 11.0366 5.35327ZM9.75049 8.72308L7.24674 9.91721C7.17999 9.94905 7.1029 9.90046 7.1029 9.82655V7.36361C7.1029 7.28861 7.18202 7.24002 7.24883 7.27393L9.75258 8.54271C9.82714 8.58043 9.8258 8.68721 9.75049 8.72308Z" fill="#6095E3"/>
</svg>
