<svg width="17" height="17" viewBox="0 0 17 17" fill="none" xmlns="http://www.w3.org/2000/svg">
<path fill-rule="evenodd" clip-rule="evenodd" d="M8.36002 16.5928C12.7783 16.5928 16.36 13.0111 16.36 8.59277C16.36 4.17449 12.7783 0.592773 8.36002 0.592773C3.94174 0.592773 0.360016 4.17449 0.360016 8.59277C0.360016 13.0111 3.94174 16.5928 8.36002 16.5928ZM12.2914 5.20683C12.5012 5.47099 12.5025 5.82103 12.4422 6.16057L12.4415 6.16188C12.3484 6.65285 11.7303 8.37155 10.6107 9.88836C10.1211 10.5294 9.54888 11.1594 8.81473 11.594C8.54336 11.7546 8.00783 11.9571 7.6519 11.8057C7.004 11.5313 6.74399 10.4715 6.54855 9.67497C6.53341 9.61326 6.51866 9.55312 6.50414 9.49506L6.50144 9.48424C6.38314 9.01168 6.271 8.56374 6.12658 8.15196C6.09247 8.05435 6.06384 7.95623 6.03535 7.8586C5.97295 7.6448 5.91125 7.43338 5.79425 7.23492C5.61798 6.93686 5.3936 7.00696 5.14651 7.08415C5.00126 7.12952 4.84817 7.17735 4.69238 7.1543C4.57676 7.13772 4.52234 7.05196 4.4653 6.96208C4.43437 6.91335 4.40268 6.86341 4.36005 6.82262V6.77674C4.56897 6.61013 4.7694 6.43145 4.97093 6.25178C5.35933 5.90551 5.75182 5.5556 6.21704 5.28156C6.43925 5.15111 6.81681 5.01084 7.12292 5.10064C7.40806 5.18389 7.64076 5.56735 7.74236 5.88527C7.84462 6.20626 7.90601 6.58536 7.9594 6.91502C7.96761 6.96571 7.97563 7.01523 7.98358 7.06319C8.00949 7.21772 8.0271 7.39093 8.0455 7.57187C8.10342 8.14153 8.16913 8.78787 8.52632 9.16994C9.03792 9.71749 9.43071 8.98518 9.64622 8.5834C9.65078 8.5749 9.65525 8.56655 9.65965 8.55836C9.84385 8.21554 10.0084 7.8583 10.0372 7.53186C10.1054 6.75183 9.73438 6.64695 9.0258 6.7007C9.42565 5.45985 10.6009 4.94136 10.9483 4.88826C11.375 4.82271 11.9984 4.83648 12.2914 5.20683Z" fill="#6095E3"/>
</svg>
